<?xml version="1.0" encoding="UTF-8"?>
<svg xmlns="http://www.w3.org/2000/svg" style="height: 0; width: 0; position: absolute; visibility: hidden">
  <symbol id="setup" x="0px" y="0px" viewBox="0 0 511.998 511.998" style="enable-background:new 0 0 511.998 511.998;" xml:space="preserve">
    <path style="fill:#68733A;" d="M383.796,231.041c3.426,17.223,3.272,34.772-0.169,51.609l31.42,22.883
      c6.225,3.617,2.786,21.135-7.683,39.132c-10.45,17.972-23.954,29.622-30.192,26.059l-0.028-0.01l-35.345-15.897c-6.456,5.662-13.564,10.772-21.299,15.208c-7.653,4.391-15.565,7.919-23.621,10.622l-4.113,38.471l-0.006,0.028c-0.073,7.182-16.947,12.959-37.736,12.908c-20.82-0.051-37.68-5.924-37.657-13.125l-3.865-38.421c-16.395-5.527-31.733-14.298-44.956-26.032l-35.257,15.64l-0.029,0.012c-6.258,3.533-19.689-8.183-30.027-26.206c-10.354-18.049-13.683-35.584-7.437-39.167l31.297-22.542c-3.454-17.337-3.28-35.004,0.223-51.944l-31.217-22.734l-0.026-0.019c-6.187-3.651-2.743-21.142,7.707-39.118c10.471-17.994,23.997-29.659,30.222-26.044l35.285,15.87c6.404-5.591,13.44-10.641,21.095-15.033c7.736-4.437,15.739-7.994,23.884-10.71l4.121-38.533c0.023-7.201,16.919-12.99,37.739-12.941c20.792,0.054,37.63,5.911,37.658,13.092l0.002,0.033l3.889,38.676c16.273,5.533,31.498,14.26,44.636,25.908l35.552-15.767c6.247-3.583,19.701,8.144,30.055,26.191c10.339,18.024,13.672,35.531,7.464,39.15l-0.026,0.021L383.796,231.041L383.796,231.041z"/>
    <path style="fill:#56592F;" d="M377.267,370.927l-35.345-15.897c-6.456,5.662-13.564,10.772-21.299,15.208
      c-7.653,4.391-15.565,7.919-23.62,10.623l-4.115,38.47l-0.006,0.029c-0.073,7.182-16.947,12.958-37.736,12.907c-20.82-0.05-37.68-5.924-37.657-13.124l-3.866-38.421c-16.393-5.529-31.732-14.299-44.955-26.032l-35.257,15.64l-0.029,0.012c-6.258,3.533-19.689-8.184-30.027-26.207h-0.001l304.685-174.78l0.001,0.001c10.339,18.024,13.672,35.531,7.464,39.149l-0.026,0.021l-31.56,22.729c3.426,17.223,3.271,34.772-0.169,51.609l31.42,22.883c6.225,3.616,2.784,21.134-7.683,39.132c-10.45,17.972-23.954,29.622-30.192,26.057L377.267,370.927z"/>
    <path style="fill:#30320A;" d="M308.792,226.008c16.894,29.45,6.697,67.028-22.776,83.936c-29.473,16.907-67.06,6.738-83.954-22.712c-16.894-29.448-6.697-67.027,22.776-83.935C254.312,186.39,291.898,196.559,308.792,226.008L308.792,226.008z"/>
    <path d="M241.279,497.975c-0.229,0-0.46-0.007-0.692-0.022c-58.948-3.676-114.437-28.725-156.244-70.527
      c-29.607-29.607-50.806-66.077-61.965-105.777l-0.845,3.156c-1.566,5.844-7.566,9.31-13.414,7.743
      c-5.843-1.566-9.308-7.572-7.743-13.414l13.73-51.225c0.181-0.747,0.441-1.466,0.768-2.148c0.694-1.449,1.685-2.697,2.876-3.684c1.241-1.032,2.714-1.797,4.341-2.203c1.206-0.303,2.473-0.404,3.754-0.273c1.306,0.129,2.551,0.49,3.687,1.043c1.437,0.696,2.674,1.685,3.654,2.871c1.021,1.232,1.779,2.694,2.184,4.306c0.184,0.728,0.295,1.479,0.325,2.242c3.398,53.525,26.169,103.903,64.137,141.874c38.028,38.025,88.501,60.81,142.119,64.154c6.037,0.377,10.625,5.576,10.249,11.613C251.836,493.509,247.016,497.975,241.279,497.975z M255.757,441.658c-22.057,0-47.765-6.098-48.445-23.222l-3.21-30.918c-13.121-5.153-25.303-12.205-36.356-21.048l-28.5,12.734c-15.172,7.877-33.276-11.326-44.276-30.373c-11.026-19.107-18.591-44.422-4.108-53.57l25.3-18.331c-1.015-6.871-1.527-13.833-1.527-20.779c0-7.045,0.526-14.1,1.566-21.056
      l-25.34-18.359c-14.488-9.149-6.918-34.463,4.108-53.568c11.007-19.057,29.12-38.271,44.296-30.366l28.726,12.839c10.982-8.745,23.071-15.728,36.076-20.841l3.244-31.238c0.68-17.124,26.388-23.223,48.445-23.223
      c21.989,0,47.661,6.076,48.441,23.137l3.25,31.325c13.009,5.112,25.098,12.096,36.078,20.841l28.681-12.817
      c15.174-7.969,33.309,11.245,44.336,30.346c10.989,19.031,18.562,44.282,4.207,53.502L395.313,235.1
      c1.04,6.948,1.566,14.002,1.566,21.053c0,6.952-0.512,13.913-1.526,20.777l25.382,18.388c14.372,9.212,6.798,34.474-4.194,53.512c-5.603,9.705-12.301,18.181-18.86,23.868c-12.156,10.539-20.945,8.805-25.439,6.491l-28.472-12.722c-11.052,8.844-23.236,15.897-36.359,21.051l-3.216,31.005C303.417,435.582,277.746,441.658,255.757,441.658z M228.965,414.883c3.025,1.761,12.05,4.87,26.792,4.87c14.748,0,23.774-3.112,26.796-4.873l3.779-36.437c0.443-4.269,3.338-7.886,7.408-9.252c15.149-5.089,28.935-13.071,40.978-23.727c3.216-2.846,7.802-3.551,11.726-1.797l33.516,14.977c3.038-1.739,10.242-7.999,17.614-20.767c7.376-12.774,9.193-22.148,9.177-25.642l-29.779-21.574c-3.468-2.512-5.154-6.816-4.314-11.016c1.538-7.695,2.317-15.599,2.317-23.493c0-7.987-0.796-15.971-2.366-23.735c-0.851-4.207,0.835-8.523,4.31-11.041l29.831-21.608c0.017-3.493-1.8-12.867-9.177-25.642c-7.372-12.768-14.578-19.031-17.615-20.768l-33.745,15.08c-3.916,1.75-8.491,1.054-11.707-1.78c-11.987-10.557-25.691-18.473-40.735-23.528c-4.068-1.367-6.962-4.983-7.405-9.252l-3.814-36.757c-3.019-1.761-12.045-4.873-26.796-4.873c-14.741,0-23.766,3.109-26.792,4.87l-3.816,36.758c-0.443,4.267-3.337,7.883-7.403,9.25c-15.039,5.058-28.746,12.975-40.74,23.532c-3.219,2.831-7.791,3.527-11.705,1.778l-33.745-15.08c-3.036,1.738-10.243,7.998-17.619,20.77c-7.37,12.767-9.19,22.136-9.177,25.636l29.833,21.614c3.473,2.517,5.159,6.831,4.31,11.035c-1.57,7.78-2.366,15.767-2.366,23.743c0,7.885,0.781,15.79,2.32,23.499c0.837,4.198-0.847,8.5-4.315,11.013l-29.782,21.576c-0.012,3.5,1.81,12.868,9.178,25.639c7.376,12.769,14.581,19.031,17.619,20.766l33.513-14.976c3.926-1.752,8.508-1.05,11.727,1.797c12.043,10.654,25.831,18.636,40.977,23.722c4.068,1.367,6.965,4.983,7.408,9.254L228.965,414.883z M255.757,328.32c-39.783,0-72.15-32.367-72.15-72.15c0-39.784,32.367-72.152,72.15-72.152c39.786,0,72.154,32.367,72.154,72.152C327.911,295.953,295.543,328.32,255.757,328.32z M255.757,205.924c-27.706,0-50.245,22.54-50.245,50.247s22.539,50.245,50.245,50.245c27.707,0,50.249-22.539,50.249-50.245S283.464,205.924,255.757,205.924z M486.785,252.451c-5.738,0-10.558-4.465-10.921-10.27c-3.345-53.625-26.129-104.098-64.155-142.12C373.682,62.033,323.21,39.249,269.59,35.906c-6.037-0.376-10.626-5.575-10.25-11.612c0.376-6.037,5.602-10.618,11.612-10.25c58.953,3.675,114.442,28.722,156.246,70.527c29.758,29.756,51.024,66.447,62.136,106.388l1.131-4.217c1.565-5.843,7.573-9.31,13.413-7.745c5.844,1.565,9.31,7.572,7.745,13.413l-13.789,51.466c-0.551,2.057-1.651,3.82-3.103,5.171c-1.838,1.933-4.382,3.203-7.253,3.382C487.246,252.444,487.013,252.451,486.785,252.451z"/>
  </symbol>

  <symbol id="mic-color" x="0px" y="0px" viewBox="0 0 512 512" style="enable-background:new 0 0 512 512;" xml:space="preserve">
    <rect x="247.467" y="407.268" style="fill:#605353;" width="17.067" height="81.192"/>
    <path style="fill:#8B7E7F;" d="M256,415.807c-81.702,0-148.169-66.469-148.169-148.171v-55.855h17.067v55.855c0,72.291,58.812,131.104,131.103,131.104s131.103-58.813,131.103-131.104v-55.855h17.067v55.855C404.169,349.338,337.702,415.807,256,415.807z"/>
    <rect x="93.093" y="203.253" style="fill:#605353;" width="325.814" height="17.067"/>
    <g>
      <path style="fill:#C2B8B9;" d="M93.091,231.952c-4.713,0-8.533-3.821-8.533-8.533v-23.273c0-4.713,3.821-8.533,8.533-8.533c4.713,0,8.533,3.821,8.533,8.533v23.273C101.624,228.131,97.803,231.952,93.091,231.952z"/>
      <path style="fill:#C2B8B9;" d="M418.909,231.952c-4.713,0-8.533-3.821-8.533-8.533v-23.273c0-4.713,3.821-8.533,8.533-8.533s8.533,3.821,8.533,8.533v23.273C427.443,228.131,423.622,231.952,418.909,231.952z"/>
    </g>
    <path style="fill:#8B7E7F;" d="M256,0c-51.413,0-93.091,41.678-93.091,93.091v123.992h186.181V93.091
      C349.091,41.678,307.413,0,256,0z"/>
    <g>
      <path style="fill:#463836;" d="M395.636,512H116.364v-11.636c0-12.8,10.473-23.273,23.273-23.273h232.727
        c12.8,0,23.273,10.473,23.273,23.273V512H395.636z"/>
      <path style="fill:#463836;" d="M151.273,194.327v26.376l11.378,8.533l-11.378,8.533v29.867c0,57.747,46.981,104.727,104.727,104.727s104.727-46.981,104.727-104.727v-29.867l-11.378-8.533l11.378-8.533v-26.376
        L151.273,194.327L151.273,194.327z"/>
    </g>
    <rect x="151.279" y="220.706" style="fill:#605353;" width="209.453" height="17.067"/>
    <g>
      <circle style="fill:#463836;" cx="209.454" cy="147.786" r="8.533"/>
      <circle style="fill:#463836;" cx="256" cy="147.786" r="8.533"/>
      <circle style="fill:#463836;" cx="302.547" cy="147.786" r="8.533"/>
      <circle style="fill:#463836;" cx="209.454" cy="100.659" r="8.533"/>
      <circle style="fill:#463836;" cx="256" cy="100.659" r="8.533"/>
      <circle style="fill:#463836;" cx="302.547" cy="100.659" r="8.533"/>
      <circle style="fill:#463836;" cx="212.332" cy="54.109" r="8.533"/>
      <circle style="fill:#463836;" cx="256" cy="54.109" r="8.533"/>
      <circle style="fill:#463836;" cx="300.794" cy="54.109" r="8.533"/>
    </g>

  </symbol>

  <symbol id="save-color" x="0px" y="0px" viewBox="0 0 280.028 280.028" style="enable-background:new 0 0 280.028 280.028;" xml:space="preserve">
    <g>
      <path style="fill:#324D5B;" d="M17.502,0h245.024c9.661,0,17.502,7.832,17.502,17.502v245.024c0,9.67-7.841,17.502-17.502,17.502H17.502C7.841,280.027,0,272.195,0,262.526V17.502C0,7.841,7.841,0,17.502,0z"/>
      <path style="fill:#CCD0D2;" d="M52.505,175.017h175.017c9.661,0,17.502,7.841,17.502,17.502v87.509H35.003v-87.509C35.003,182.858,42.844,175.017,52.505,175.017z"/>
      <path style="fill:#E4E7E7;" d="M52.505,157.515h175.017c9.661,0,17.502,7.841,17.502,17.502v26.253H35.003v-26.253C35.003,165.356,42.844,157.515,52.505,157.515z"/>
      <path style="fill:#2B414D;" d="M245.024,0v105.01c0,9.67-7.841,17.502-17.502,17.502H52.505c-9.661,0-17.502-7.832-17.502-17.502V0H245.024z"/>
      <path style="fill:#CCD0D2;" d="M122.512,0v96.259c0,4.83,3.92,8.751,8.751,8.751h87.509c4.839,0,8.751-3.92,8.751-8.751V0H122.512z M210.021,78.758c0,4.83-3.912,8.751-8.751,8.751h-8.751c-4.839,0-8.751-3.92-8.751-8.751V26.253c0-4.83,3.912-8.751,8.751-8.751h8.751c4.839,0,8.751,3.92,8.751,8.751V78.758z"/>
    </g>
  </symbol>

  <symbol id="map1" x="0px" y="0px" viewBox="0 0 279.923 279.923" style="enable-background:new 0 0 279.923 279.923;" xml:space="preserve">
    <g>
      <path style="fill:#4ED5BD;" d="M279.634,279.739L218.5,183.715l-156.658,0.184l-61.553,95.84l140.355,0.184L279.634,279.739z"/>
      <path style="fill:#F4B459;" d="M140.302,0C91.998,0,52.838,37.042,52.838,82.739c0,1.82,1.654,26.48,8.086,37.594c21.641,46.94,79.291,98.692,79.379,98.508c0.079,0.271,57.974-51.788,79.51-98.771c7.517-15.165,7.955-36.439,7.955-37.331 C227.767,37.051,188.607,0,140.302,0z M140.294,122.547c-19.331,0-35.003-15.673-35.003-35.003s15.673-35.003,35.003-35.003s35.003,15.673,35.003,35.003S159.624,122.547,140.294,122.547z"/>
      <path style="fill:#CCA032;" d="M140.294,43.789c-24.161,0-43.754,19.584-43.754,43.754c0,24.179,19.593,43.754,43.754,43.754c24.179,0,43.754-19.584,43.754-43.754C184.048,63.382,164.472,43.789,140.294,43.789z M140.294,113.796c-14.5,0-26.253-11.752-26.253-26.253c0-14.491,11.752-26.253,26.253-26.253c14.5,0,26.253,11.761,26.253,26.253	C166.546,102.044,154.794,113.796,140.294,113.796z"/>
      <path style="fill:#26A6D1;" d="M201.55,245.059c-10.947,4.892-34.583,8.891-43.903,8.856c-8.033-0.053-32.448-5.18-43.606-8.856c-1.068-0.341-31.276-15.191-52.505-17.502c-22.087-2.371-26.253,0-26.253,0l-7.543,9.433L0.289,279.739l140.355,0.184l138.99-0.184l-37.55-58.963C232.361,226.682,203.466,244.201,201.55,245.059z"/>
    </g>
  </symbol>

  <symbol id="calendar_time" x="0px" y="0px" viewBox="0 0 512 512" style="enable-background:new 0 0 512 512;" xml:space="preserve">
    <path style="fill:#E6EAEA;" d="M384.267,58.512H8.017C3.588,58.512,0,62.101,0,66.529V374.37c0,4.428,3.588,8.017,8.017,8.017
      h376.251c4.428,0,8.017-3.588,8.017-8.017V66.529C392.284,62.102,388.696,58.512,384.267,58.512z"/>
    <path style="fill:#CDD4D5;" d="M8.017,58.512C3.588,58.512,0,62.101,0,66.529V374.37c0,4.428,3.588,8.017,8.017,8.017h188.125
      V58.512C196.142,58.512,8.017,58.512,8.017,58.512z"/>
    <rect x="59.324" y="169.142" style="fill:#687F82;" width="68.409" height="68.409"/>
    <rect x="264.551" y="169.142" style="fill:#9BAAAB;" width="68.409" height="68.409"/>
    <rect x="59.324" y="271.755" style="fill:#687F82;" width="68.409" height="68.409"/>
    <g>
      <rect x="161.937" y="271.755" style="fill:#9BAAAB;" width="68.409" height="68.409"/>
      <rect x="161.937" y="169.142" style="fill:#9BAAAB;" width="68.409" height="68.409"/>
      <rect x="264.551" y="271.755" style="fill:#9BAAAB;" width="68.409" height="68.409"/>
    </g>
    <g>
      <rect x="161.937" y="169.142" style="fill:#687F82;" width="34.205" height="68.409"/>
      <rect x="161.937" y="271.755" style="fill:#687F82;" width="34.205" height="68.409"/>
    </g>
    <path style="fill:#4ACFD9;" d="M213.244,7.205H179.04c-4.428,0-8.017,3.588-8.017,8.017v102.614c0,4.428,3.588,8.017,8.017,8.017h34.205c4.428,0,8.017-3.588,8.017-8.017V15.222C221.261,10.795,217.673,7.205,213.244,7.205z"/>
    <path style="fill:#0295AA;" d="M179.04,7.205c-4.428,0-8.017,3.588-8.017,8.017v102.614c0,4.428,3.588,8.017,8.017,8.017h17.102 V7.205C196.142,7.205,179.04,7.205,179.04,7.205z"/>
    <path style="fill:#4ACFD9;" d="M341.511,7.205h-34.205c-4.428,0-8.017,3.588-8.017,8.017v102.614c0,4.428,3.588,8.017,8.017,8.017h34.205c4.428,0,8.017-3.588,8.017-8.017V15.222C349.528,10.795,345.94,7.205,341.511,7.205z"/>
    <path style="fill:#0295AA;" d="M84.977,7.205H50.772c-4.428,0-8.017,3.588-8.017,8.017v102.614c0,4.428,3.588,8.017,8.017,8.017h34.205c4.428,0,8.017-3.588,8.017-8.017V15.222C92.994,10.795,89.405,7.205,84.977,7.205z"/>
    <path style="fill:#FF8C29;" d="M367.165,215.124c-79.862,0-144.835,64.973-144.835,144.835s64.973,144.835,144.835,144.835	S512,439.822,512,359.96S447.027,215.124,367.165,215.124z"/>
    <g>
      <path style="fill:#FFFFFF;" d="M477.261,367.976c-4.428,0-8.017-3.588-8.017-8.017c0-11.734-1.983-23.243-5.895-34.208c-1.488-4.17,0.687-8.755,4.858-10.244c4.167-1.487,8.756,0.686,10.244,4.858c4.529,12.697,6.826,26.019,6.826,39.594 C485.278,364.387,481.689,367.976,477.261,367.976z"/>
      <path style="fill:#FFFFFF;" d="M457.729,305.425c-2.541,0-5.04-1.206-6.597-3.451c-13.54-19.54-33.509-33.84-56.227-40.264c-4.26-1.205-6.737-5.634-5.533-9.896c1.205-4.261,5.633-6.739,9.896-5.533c26.289,7.433,49.388,23.969,65.043,46.561c2.52,3.638,1.615,8.633-2.025,11.155C460.895,304.962,459.302,305.425,457.729,305.425z"/>
    </g>
    <path style="fill:#E6EAEA;" d="M367.165,269.123c-50.087,0-90.837,40.748-90.837,90.836s40.749,90.837,90.837,90.837s90.837-40.749,90.837-90.837S417.252,269.123,367.165,269.123z"/>
    <path style="fill:#FD6A33;" d="M222.33,359.96c0,79.862,64.973,144.835,144.835,144.835v-289.67	C287.303,215.124,222.33,280.097,222.33,359.96z"/>
    <path style="fill:#CDD4D5;" d="M276.328,359.96c0,50.087,40.749,90.837,90.837,90.837V269.123 C317.078,269.123,276.328,309.871,276.328,359.96z"/>
    <path style="fill:#F0353D;" d="M414.196,373.836h-47.031c-4.428,0-8.017-3.588-8.017-8.017v-47.031c0-4.428,3.588-8.017,8.017-8.017c4.428,0,8.017,3.588,8.017,8.017v39.015h39.015c4.428,0,8.017,3.588,8.017,8.017C422.213,370.248,418.625,373.836,414.196,373.836z"/>
  </symbol>

  <symbol id="global-color" x="0px" y="0px" viewBox="0 0 512 512" style="enable-background:new 0 0 512 512;" xml:space="preserve">
    <circle style="fill:#91C0F1;" cx="255.999" cy="255.998" r="255.998"/>
    <path style="fill:#D7EDF3;" d="M256,512C114.615,512,0.001,397.384,0.001,255.999S114.615,0,256,0V512z"/>
    <path style="fill:#A2CE86;" d="M142.83,345.053l3.763-4.164c12.842-14.212,12.595-35.91-0.567-49.827l-2.011-2.126c-8.623-9.118-11.989-22.007-8.927-34.176c4.016-15.959-3.08-32.639-17.363-40.814l-97.426-58.006 C7.234,186.676,0.001,220.493,0.001,255.999c0,100.778,58.241,187.938,142.892,229.702l-9.008-109.85	C131.987,364.756,135.284,353.404,142.83,345.053z"/>
    <g>
      <path style="fill:#489B6D;" d="M436.811,74.777l-16.915,18.486c-7.363,8.047-17.639,12.812-28.537,13.235l-76.503,2.969c-13.56,0.527-25.973,7.756-33.121,19.291l-19.61,31.644c-8.866,14.308-8.044,32.59,2.072,46.044l12.178,16.196c9.245,12.295,14.206,27.278,14.127,42.66l-0.259,50.205c-0.136,26.442,23.649,46.589,49.708,42.106l55.769-9.597c15.328-2.637,29.349-10.278,39.875-21.727l0,0c18.726-20.368,46.625-27.139,71.444-19.946c3.247-16.279,4.961-33.111,4.961-50.344 C512.001,185.203,483.26,121.12,436.811,74.777z"/>
      <path style="fill:#489B6D;" d="M270.438,450.438L270.438,450.438c-17.042,7.556-26.831,25.666-23.817,44.062l2.854,17.416c2.168,0.054,4.343,0.082,6.525,0.082c41.38,0,80.46-9.831,115.051-27.265l-4.36-6.497	C345.611,446.832,305.017,435.108,270.438,450.438z"/>
    </g>
    <path style="fill:#A2CE86;" d="M145.49,101.316l51.928-29.224c8.166-4.596,14.086-12.345,16.373-21.433l12.308-48.911c-58.35,6.789-110.711,33.189-150.316,72.45l32.275,24.542C118.906,106.986,133.616,107.999,145.49,101.316z"/>
  </symbol>

  <symbol id="private-color" x="0px" y="0px" viewBox="0 0 511.999 511.999" style="enable-background:new 0 0 511.999 511.999;" xml:space="preserve">
    <g>
      <path style="fill:#29ABE2;" d="M18.757,501.431c0-131.026,106.217-237.243,237.243-237.243s237.243,106.217,237.243,237.243H18.757z"/>
      <circle style="fill:#29ABE2;" cx="255.999" cy="137.378" r="126.811"/>
    </g>
    <path d="M431.227,326.204c-32.299-32.299-71.945-54.578-115.168-65.29c45.736-22.325,77.319-69.31,77.319-123.535 C393.378,61.628,331.75,0,255.999,0S118.621,61.628,118.621,137.379c0,54.227,31.583,101.21,77.319,123.535c-43.224,10.711-82.869,32.991-115.168,65.29C33.966,373.009,8.189,435.239,8.189,501.431c0,5.836,4.731,10.568,10.568,10.568h474.485c5.836,0,10.568-4.731,10.568-10.568C503.81,435.239,478.033,373.009,431.227,326.204z M139.756,137.378c0-64.097,52.147-116.244,116.244-116.244s116.244,52.147,116.244,116.244s-52.147,116.244-116.244,116.244 S139.756,201.474,139.756,137.378z M29.568,490.864c5.535-120.106,104.983-216.107,226.432-216.107s220.897,96.001,226.432,216.107	H29.568z"/>
    <path d="M65.399,466.033c-0.818,0-1.649-0.095-2.478-0.295c-5.675-1.364-9.17-7.069-7.806-12.745c12.881-53.607,47.534-100.641,95.072-129.04c5.009-2.993,11.498-1.359,14.491,3.653c2.993,5.01,1.358,11.499-3.653,14.491c-42.688,25.502-73.8,67.721-85.362,115.834C74.501,462.776,70.171,466.033,65.399,466.033z"/>
    <path d="M210.55,321.267c-4.785,0-9.12-3.272-10.273-8.13c-1.347-5.679,2.163-11.374,7.841-12.722c15.598-3.702,31.707-5.58,47.881-5.58c5.836,0,10.568,4.731,10.568,10.568s-4.731,10.568-10.568,10.568
      c-14.532,0-28.999,1.684-43.001,5.008C212.179,321.173,211.358,321.267,210.55,321.267z"/>
  </symbol>

  <symbol id="calendar-color" x="0px" y="0px" viewBox="0 0 128.5 128.5" style="enable-background:new 0 0 128.5 128.5;" xml:space="preserve">
    <g id="_x31_4">
      <g>
        <circle style="fill:#EF8D6F;" cx="64.25" cy="64.25" r="64.25"/>
      </g>
      <g>
        <path style="fill:#F2F2F2;" d="M87.805,28.975h0.618c7.083,0,12.878,5.795,12.878,12.879v48.345
          c0,7.083-5.796,12.879-12.878,12.879h-0.618V47.287c2.704,0,4.896-2.192,4.896-4.896c0-2.703-2.191-4.895-4.896-4.895
          C87.805,37.496,87.805,28.975,87.805,28.975z M40.696,28.975h47.109v8.521h-0.001c-2.703,0-4.896,2.192-4.896,4.895
          c0,2.704,2.193,4.896,4.896,4.896h0.001v55.791H40.696V47.287c2.703,0,4.896-2.192,4.896-4.896c0-2.703-2.192-4.895-4.896-4.895
          V28.975z M40.079,28.975h0.617v8.521c-2.704,0-4.896,2.192-4.896,4.895c0,2.704,2.192,4.896,4.896,4.896v55.791h-0.617
          c-7.084,0-12.88-5.797-12.88-12.879V41.854C27.199,34.77,32.995,28.975,40.079,28.975z"/>
        <path style="fill:#AFAFAF;" d="M40.696,25.422L40.696,25.422c1.046,0,1.902,0.856,1.902,1.902v13.165
          c0,1.046-0.856,1.902-1.902,1.902h-0.001c-1.047,0-1.902-0.856-1.902-1.902V27.324C38.794,26.278,39.65,25.422,40.696,25.422z"/>
        <path style="fill:#AFAFAF;" d="M87.805,25.422L87.805,25.422c1.047,0,1.902,0.856,1.902,1.902v13.165
          c0,1.046-0.855,1.902-1.902,1.902h-0.001c-1.047,0-1.903-0.856-1.903-1.902V27.324C85.902,26.278,86.758,25.422,87.805,25.422z"/>
        <rect x="27.199" y="50.675" style="fill:#FABB18;" width="74.102" height="3.107"/>
        <rect x="53.236" y="59.304" style="fill:#EFCB6C;" width="9.584" height="8.453"/>
        <rect x="38.199" y="58.954" style="fill:#C9675B;" width="9.584" height="8.453"/>
        <rect x="68.727" y="59.304" style="fill:#EFCB6C;" width="9.584" height="8.453"/>
        <rect x="83.088" y="59.304" style="fill:#EFCB6C;" width="9.584" height="8.453"/>
        <rect x="53.586" y="72.996" style="fill:#EFCB6C;" width="9.584" height="8.453"/>
        <rect x="69.077" y="72.996" style="fill:#EFCB6C;" width="9.584" height="8.453"/>
        <rect x="83.088" y="73.346" style="fill:#EFCB6C;" width="9.584" height="8.453"/>
        <rect x="53.586" y="87.327" style="fill:#EFCB6C;" width="9.584" height="8.439"/>
        <rect x="38.373" y="72.996" style="fill:#EFCB6C;" width="9.584" height="8.453"/>
        <rect x="38.373" y="87.327" style="fill:#EFCB6C;" width="9.584" height="8.439"/>
        <rect x="68.727" y="87.677" style="fill:#EFCB6C;" width="9.584" height="8.439"/>
        <rect x="83.088" y="87.677" style="fill:#EFCB6C;" width="9.584" height="8.439"/>
      </g>
    </g>
  </symbol>

  <symbol id="cog" class="h-6 w-6" fill="none" viewBox="0 0 24 24" stroke="currentColor">
    <path stroke-linecap="round" stroke-linejoin="round" stroke-width="2" d="M10.325 4.317c.426-1.756 2.924-1.756 3.35 0a1.724 1.724 0 002.573 1.066c1.543-.94 3.31.826 2.37 2.37a1.724 1.724 0 001.065 2.572c1.756.426 1.756 2.924 0 3.35a1.724 1.724 0 00-1.066 2.573c.94 1.543-.826 3.31-2.37 2.37a1.724 1.724 0 00-2.572 1.065c-.426 1.756-2.924 1.756-3.35 0a1.724 1.724 0 00-2.573-1.066c-1.543.94-3.31-.826-2.37-2.37a1.724 1.724 0 00-1.065-2.572c-1.756-.426-1.756-2.924 0-3.35a1.724 1.724 0 001.066-2.573c-.94-1.543.826-3.31 2.37-2.37.996.608 2.296.07 2.572-1.065z" />
    <path stroke-linecap="round" stroke-linejoin="round" stroke-width="2" d="M15 12a3 3 0 11-6 0 3 3 0 016 0z" />
  </symbol>

  <symbol id="location"  x="0px" y="0px" viewBox="0 0 512 512" style="enable-background:new 0 0 512 512;" xml:space="preserve">
	<circle style="fill:#AFF0E8;" cx="285.867" cy="341.333" r="170.667"/>
	<g>
		<path style="fill:#74DBC9;" d="M302.933,494.933c-94.257,0-170.667-76.41-170.667-170.667c0-42.785,15.745-81.891,41.756-111.844
			c-36.035,31.292-58.822,77.439-58.822,128.911C115.2,435.59,191.61,512,285.867,512c51.472,0,97.62-22.787,128.911-58.822
			C384.825,479.188,345.718,494.933,302.933,494.933z"/>
		<path style="fill:#74DBC9;" d="M380.78,468.543l-36.615-21.97l-7.098-21.291V358.4c0-1.685-0.498-3.332-1.434-4.734l-13.186-19.779
			l20.653-20.654c2.192-2.191,3.022-5.398,2.172-8.378l-14.822-51.877l17.677-5.892c2.922-0.839,33.517-9.713,50.589-17.98
			c5.339-2.585,6.42-9.989,2.027-13.989c-31.475-28.663-72.273-44.45-114.875-44.45c-47.903,0-93.893,20.32-126.178,55.751
			c-2.158,2.368-2.807,5.744-1.683,8.743l8.938,23.835c1.249,3.331,4.433,5.537,7.99,5.537h45.05l6.589,19.765
			c0.716,2.147,2.255,3.922,4.279,4.933l15.265,7.633l48.284,64.38v36.288l-31.634,31.634c-0.398,0.398-0.755,0.833-1.067,1.3
			l-17.067,25.6c-1.226,1.838-1.691,4.08-1.297,6.254l7.325,40.448c0.642,3.546,3.442,6.306,6.996,6.897
			c9.312,1.549,18.803,2.334,28.21,2.334c34.141,0,67.092-10.05,95.293-29.064c2.419-1.631,3.837-4.384,3.76-7.301
			C384.843,472.719,383.281,470.045,380.78,468.543z"/>
	</g>
	<path id="SVGCleanerId_0" style="fill:#74DBC9;" d="M437.015,262.034c-2.629-5.004-9.584-6.068-13.587-2.064l-32.662,32.662
		c-3.333,3.332-3.333,8.735,0,12.067l11.834,11.834l-21.159,28.213c-2.548,3.397-2.21,8.151,0.793,11.154l14.567,14.566V384
		c0,2.263,0.899,4.434,2.499,6.034l26.979,26.979c4.101,4.102,11.248,2.86,13.738-2.364c10.961-23.003,16.517-47.67,16.517-73.316
		C456.533,313.746,449.783,286.324,437.015,262.034z"/>
	<g>
		<path style="fill:#74DBC9;" d="M228.832,324.705l-25.6-8.533c-0.87-0.29-1.781-0.438-2.699-0.438H178.24l4.789-14.368
			c1.678-5.034-1.78-10.509-7.037-11.166l-43.927-5.49c-4.105-0.514-7.981,1.988-9.207,5.936
			c-5.082,16.355-7.658,33.409-7.658,50.688c0,44.032,16.721,85.833,47.082,117.701c2.382,2.5,6.141,3.319,9.348,2.037l23.539-9.415
			c1.94-0.777,3.529-2.238,4.463-4.107l7.914-15.828l16.087-16.087c3.751-3.751,3.108-10.195-1.3-13.134l-18.094-12.063
			l20.188-26.917c0.55-0.734,0.978-1.551,1.268-2.421l8.533-25.6C235.719,331.027,233.302,326.195,228.832,324.705z"/>
		<path style="fill:#74DBC9;" d="M159.689,226.418c-1.99,2.185-2.678,5.225-1.893,8.037c4.789-7.723,10.167-15.042,16.091-21.879
			C168.913,216.894,164.164,221.505,159.689,226.418z"/>
	</g>
	<path style="fill:#6AC8B7;" d="M247.579,485.749l3.082,17.02c0.642,3.546,3.442,6.306,6.996,6.897
		c9.312,1.549,18.803,2.334,28.21,2.334c34.141,0,67.092-10.05,95.293-29.064c2.419-1.631,3.837-4.384,3.76-7.301
		c-0.014-0.526-0.092-1.04-0.199-1.545c-24.286,13.286-52.152,20.844-81.787,20.844C283.557,494.933,264.938,491.698,247.579,485.749
		z"/>
	<g>
		<path id="SVGCleanerId_0_1_" style="fill:#74DBC9;" d="M437.015,262.034c-2.629-5.004-9.584-6.068-13.587-2.064l-32.662,32.662
			c-3.333,3.332-3.333,8.735,0,12.067l11.834,11.834l-21.159,28.213c-2.548,3.397-2.21,8.151,0.793,11.154l14.567,14.566V384
			c0,2.263,0.899,4.434,2.499,6.034l26.979,26.979c4.101,4.102,11.248,2.86,13.738-2.364c10.961-23.003,16.517-47.67,16.517-73.316
			C456.533,313.746,449.783,286.324,437.015,262.034z"/>
	</g>
	<path style="fill:#6AC8B7;" d="M132.267,324.267c0-13.409,1.551-26.455,4.476-38.974l-4.678-0.585
		c-4.105-0.514-7.981,1.988-9.207,5.936c-5.081,16.356-7.657,33.41-7.657,50.689c0,44.032,16.721,85.833,47.082,117.701
		c2.382,2.5,6.141,3.319,9.348,2.037l19.546-7.818C155.09,421.962,132.267,375.779,132.267,324.267z"/>
	<path style="fill:#FDD042;" d="M337.067,0c-47.053,0-85.333,38.281-85.333,85.333c0,19.303,13.401,49.215,39.83,88.902
		c19.209,28.845,38.096,52.052,38.891,53.025c3.361,4.119,9.861,4.119,13.222,0c0.795-0.974,19.683-24.181,38.891-53.025
		C409,134.548,422.4,104.637,422.4,85.333C422.4,38.281,384.119,0,337.067,0z"/>
	<path style="fill:#F2C127;" d="M308.63,174.236c-26.43-39.687-39.83-69.599-39.83-88.902c0-44.173,33.739-80.61,76.8-84.906
		C342.793,0.147,339.947,0,337.067,0c-47.053,0-85.333,38.281-85.333,85.333c0,19.303,13.401,49.215,39.83,88.902
		c19.209,28.845,38.096,52.052,38.891,53.025c3.361,4.119,9.861,4.119,13.222,0c0.137-0.166,0.814-0.999,1.922-2.387
		C340.238,218.16,324.549,198.141,308.63,174.236z"/>
	<circle style="fill:#EBEBEC;" cx="337.067" cy="85.333" r="51.2"/>
	<path style="fill:#D7D8D9;" d="M345.6,128c-28.277,0-51.2-22.923-51.2-51.2c0-11.964,4.114-22.96,10.991-31.676
		c-11.886,9.376-19.524,23.895-19.524,40.209c0,28.277,22.923,51.2,51.2,51.2c16.314,0,30.833-7.638,40.209-19.524
		C368.56,123.886,357.564,128,345.6,128z"/>
	<g>
		<path style="fill:#606268;" d="M320,93.867c-3.529,0-6.787-2.268-8.004-5.58c-1.213-3.299-0.235-7.166,2.461-9.444
			c2.789-2.358,6.879-2.692,10-0.783c3.012,1.843,4.605,5.474,3.907,8.938C327.568,90.938,324.033,93.867,320,93.867z"/>
		<path style="fill:#606268;" d="M354.133,93.867c-3.534,0-6.785-2.261-8.004-5.58c-1.236-3.362-0.194-7.281,2.591-9.55
			c2.734-2.227,6.681-2.548,9.725-0.763c3.046,1.788,4.719,5.375,4.082,8.859C361.793,90.849,358.233,93.867,354.133,93.867z"/>
	</g>
	<path style="fill:#E5563C;" d="M157.867,85.333c-56.464,0-102.4,45.936-102.4,102.4c0,23.175,16.253,59.988,48.307,109.417
		c23.412,36.103,47.159,66.24,47.396,66.54c3.363,4.256,10.029,4.256,13.393,0c0.237-0.3,23.984-30.436,47.396-66.54
		c32.054-49.428,48.307-86.241,48.307-109.417C260.267,131.269,214.331,85.333,157.867,85.333z"/>
	<path style="fill:#CF442B;" d="M120.841,297.15c-32.054-49.428-48.307-86.241-48.307-109.417c0-53.589,41.381-97.691,93.867-102.042
		c-2.815-0.234-5.66-0.358-8.533-0.358c-56.464,0-102.4,45.936-102.4,102.4c0,23.175,16.253,59.988,48.307,109.417
		c23.412,36.103,47.159,66.24,47.396,66.54c3.363,4.256,10.029,4.256,13.393,0c0.038-0.048,0.688-0.873,1.837-2.357
		C160.384,353.559,140.497,327.462,120.841,297.15z"/>
	<circle style="fill:#EBEBEC;" cx="157.867" cy="187.733" r="68.267"/>
	<path style="fill:#D7D8D9;" d="M174.933,247.467c-37.702,0-68.267-30.564-68.267-68.267c0-23.311,11.692-43.882,29.522-56.198
		c-27.072,9.063-46.589,34.61-46.589,64.732c0,37.702,30.564,68.267,68.267,68.267c14.393,0,27.737-4.464,38.745-12.068
		C189.798,246.212,182.514,247.467,174.933,247.467z"/>
	<g>
		<path style="fill:#606268;" d="M157.867,196.267H156.8c-4.713,0-8.533-3.821-8.533-8.533c0-4.713,3.821-8.533,8.533-8.533h1.067
			c4.713,0,8.533,3.821,8.533,8.533C166.4,192.446,162.579,196.267,157.867,196.267z"/>
		<path style="fill:#606268;" d="M183.467,196.267c-3.511,0-6.73-1.158-8.528-4.389c-1.906-3.425-1.17-7.837,1.73-10.467
			c2.443-2.215,6.271-2.802,9.387-1.811c3.711,1.18,6.193,4.849,5.924,8.731C191.675,192.742,187.888,196.267,183.467,196.267z"/>
		<path style="fill:#606268;" d="M132.267,196.267H131.2c-4.713,0-8.533-3.821-8.533-8.533c0-4.713,3.821-8.533,8.533-8.533h1.067
			c4.713,0,8.533,3.821,8.533,8.533C140.8,192.446,136.979,196.267,132.267,196.267z"/>
	</g>
</symbol>

<symbol id="pc" x="0px" y="0px" viewBox="0 0 512 512" style="enable-background:new 0 0 512 512;" xml:space="preserve">
  <path style="fill:#464655;" d="M494.345,39.724H17.655C7.904,39.724,0,47.629,0,57.379v282.483h512V57.379
    C512,47.629,504.096,39.724,494.345,39.724z M485.517,119.172v194.207H26.483V119.172V66.207h459.034V119.172z"/>
  <path style="fill:#FFFFFF;" d="M26.483,313.379h459.034V119.172H26.483V313.379z M388.414,163.31v-8.828
    c0-4.875,3.953-8.828,8.828-8.828h52.966c4.875,0,8.828,3.953,8.828,8.828v8.828v114.759c0,4.875-3.953,8.828-8.828,8.828h-52.966
    c-4.875,0-8.828-3.953-8.828-8.828V163.31z M291.31,163.31v-8.828c0-4.875,3.953-8.828,8.828-8.828h52.966
    c4.875,0,8.828,3.953,8.828,8.828v8.828v114.759c0,4.875-3.953,8.828-8.828,8.828h-52.966c-4.875,0-8.828-3.953-8.828-8.828V163.31z
    M194.207,163.31v-8.828c0-4.875,3.953-8.828,8.828-8.828H256c4.875,0,8.828,3.953,8.828,8.828v8.828v114.759
    c0,4.875-3.953,8.828-8.828,8.828h-52.966c-4.875,0-8.828-3.953-8.828-8.828V163.31z M52.966,163.31v-8.828
    c0-4.875,3.953-8.828,8.828-8.828h97.103c4.875,0,8.828,3.953,8.828,8.828v8.828v114.759c0,4.875-3.953,8.828-8.828,8.828H61.793
    c-4.875,0-8.828-3.953-8.828-8.828V163.31z"/>
  <path style="fill:#BEC8DC;" d="M0,375.172c0,9.75,7.904,17.655,17.655,17.655h167.724h141.241h167.724
    c9.751,0,17.655-7.905,17.655-17.655v-35.31H0V375.172z M256,353.103c7.313,0,13.241,5.929,13.241,13.241
    s-5.929,13.241-13.241,13.241c-7.313,0-13.241-5.929-13.241-13.241S248.687,353.103,256,353.103z"/>
  <polygon style="fill:#AFBBD0;" points="177.655,454.621 334.345,454.621 328.828,410.483 183.172,410.483 "/>
  <path style="fill:#BEC8DC;" d="M176.552,454.621c-4.875,0-8.828,3.953-8.828,8.828s3.953,8.828,8.828,8.828h158.897
    c4.875,0,8.828-3.953,8.828-8.828s-3.953-8.828-8.828-8.828h-1.103h-156.69H176.552z"/>
  <polygon style="fill:#96A5B9;" points="183.172,410.483 328.828,410.483 326.621,392.828 185.379,392.828 "/>
  <path style="fill:#FF6469;" d="M26.483,119.172h459.034V66.207H26.483V119.172z M423.724,83.862h35.31
    c4.875,0,8.828,3.953,8.828,8.828c0,4.875-3.953,8.828-8.828,8.828h-35.31c-4.875,0-8.828-3.953-8.828-8.828
    C414.897,87.815,418.849,83.862,423.724,83.862z M353.103,83.862h35.31c4.875,0,8.828,3.953,8.828,8.828
    c0,4.875-3.953,8.828-8.828,8.828h-35.31c-4.875,0-8.828-3.953-8.828-8.828C344.276,87.815,348.228,83.862,353.103,83.862z
    M282.483,83.862h35.31c4.875,0,8.828,3.953,8.828,8.828c0,4.875-3.953,8.828-8.828,8.828h-35.31c-4.875,0-8.828-3.953-8.828-8.828
    C273.655,87.815,277.608,83.862,282.483,83.862z M211.862,83.862h35.31c4.875,0,8.828,3.953,8.828,8.828
    c0,4.875-3.953,8.828-8.828,8.828h-35.31c-4.875,0-8.828-3.953-8.828-8.828C203.034,87.815,206.987,83.862,211.862,83.862z
    M141.241,83.862h35.31c4.875,0,8.828,3.953,8.828,8.828c0,4.875-3.953,8.828-8.828,8.828h-35.31c-4.875,0-8.828-3.953-8.828-8.828
    C132.414,87.815,136.366,83.862,141.241,83.862z M52.966,83.862h52.966c4.875,0,8.828,3.953,8.828,8.828
    c0,4.875-3.953,8.828-8.828,8.828H52.966c-4.875,0-8.828-3.953-8.828-8.828C44.138,87.815,48.09,83.862,52.966,83.862z"/>
  <path style="fill:#FFDC69;" d="M52.966,101.517h52.966c4.875,0,8.828-3.953,8.828-8.828c0-4.875-3.953-8.828-8.828-8.828H52.966
    c-4.875,0-8.828,3.953-8.828,8.828C44.138,97.565,48.09,101.517,52.966,101.517z"/>
  <g>
    <path style="fill:#D2555F;" d="M141.241,101.517h35.31c4.875,0,8.828-3.953,8.828-8.828c0-4.875-3.953-8.828-8.828-8.828h-35.31
      c-4.875,0-8.828,3.953-8.828,8.828C132.414,97.565,136.366,101.517,141.241,101.517z"/>
    <path style="fill:#D2555F;" d="M211.862,101.517h35.31c4.875,0,8.828-3.953,8.828-8.828c0-4.875-3.953-8.828-8.828-8.828h-35.31
      c-4.875,0-8.828,3.953-8.828,8.828C203.034,97.565,206.987,101.517,211.862,101.517z"/>
    <path style="fill:#D2555F;" d="M282.483,101.517h35.31c4.875,0,8.828-3.953,8.828-8.828c0-4.875-3.953-8.828-8.828-8.828h-35.31
      c-4.875,0-8.828,3.953-8.828,8.828C273.655,97.565,277.608,101.517,282.483,101.517z"/>
    <path style="fill:#D2555F;" d="M353.103,101.517h35.31c4.875,0,8.828-3.953,8.828-8.828c0-4.875-3.953-8.828-8.828-8.828h-35.31
      c-4.875,0-8.828,3.953-8.828,8.828C344.276,97.565,348.228,101.517,353.103,101.517z"/>
    <path style="fill:#D2555F;" d="M423.724,101.517h35.31c4.875,0,8.828-3.953,8.828-8.828c0-4.875-3.953-8.828-8.828-8.828h-35.31
      c-4.875,0-8.828,3.953-8.828,8.828C414.897,97.565,418.849,101.517,423.724,101.517z"/>
  </g>
  <g>
    <path style="fill:#DEE3ED;" d="M61.793,286.897h97.103c4.875,0,8.828-3.953,8.828-8.828V163.31c0,4.875-3.953,8.828-8.828,8.828
      H61.793c-4.875,0-8.828-3.953-8.828-8.828v114.759C52.966,282.944,56.918,286.897,61.793,286.897z"/>
    <path style="fill:#DEE3ED;" d="M203.034,286.897H256c4.875,0,8.828-3.953,8.828-8.828V163.31c0,4.875-3.953,8.828-8.828,8.828
      h-52.966c-4.875,0-8.828-3.953-8.828-8.828v114.759C194.207,282.944,198.159,286.897,203.034,286.897z"/>
    <path style="fill:#DEE3ED;" d="M300.138,286.897h52.966c4.875,0,8.828-3.953,8.828-8.828V163.31c0,4.875-3.953,8.828-8.828,8.828
      h-52.966c-4.875,0-8.828-3.953-8.828-8.828v114.759C291.31,282.944,295.263,286.897,300.138,286.897z"/>
    <path style="fill:#DEE3ED;" d="M397.241,286.897h52.966c4.875,0,8.828-3.953,8.828-8.828V163.31c0,4.875-3.953,8.828-8.828,8.828
      h-52.966c-4.875,0-8.828-3.953-8.828-8.828v114.759C388.414,282.944,392.366,286.897,397.241,286.897z"/>
  </g>
  <path style="fill:#FFDC69;" d="M61.793,172.138h97.103c4.875,0,8.828-3.953,8.828-8.828v-8.828c0-4.875-3.953-8.828-8.828-8.828
    H61.793c-4.875,0-8.828,3.953-8.828,8.828v8.828C52.966,168.185,56.918,172.138,61.793,172.138z"/>
  <path style="fill:#B4E173;" d="M203.034,172.138H256c4.875,0,8.828-3.953,8.828-8.828v-8.828c0-4.875-3.953-8.828-8.828-8.828
    h-52.966c-4.875,0-8.828,3.953-8.828,8.828v8.828C194.207,168.185,198.159,172.138,203.034,172.138z"/>
  <path style="fill:#FF969B;" d="M300.138,172.138h52.966c4.875,0,8.828-3.953,8.828-8.828v-8.828c0-4.875-3.953-8.828-8.828-8.828
    h-52.966c-4.875,0-8.828,3.953-8.828,8.828v8.828C291.31,168.185,295.263,172.138,300.138,172.138z"/>
  <path style="fill:#A0DCF0;" d="M397.241,172.138h52.966c4.875,0,8.828-3.953,8.828-8.828v-8.828c0-4.875-3.953-8.828-8.828-8.828
    h-52.966c-4.875,0-8.828,3.953-8.828,8.828v8.828C388.414,168.185,392.366,172.138,397.241,172.138z"/>
  <circle style="fill:#96A5B9;" cx="256" cy="366.345" r="13.241"/>
</symbol>

<symbol id="list" x="0px" y="0px" viewBox="0 0 512 512" style="enable-background:new 0 0 512 512;" xml:space="preserve">
  <rect x="4" y="52" style="fill:#FFFFFF;" width="504" height="408"/>
  <path style="fill:#AAC1CE;" d="M504,56v400H8V56H504 M512,48H0v416h512V48z"/>
  <rect x="64" y="104" style="fill:#E04F5F;" width="80" height="80"/>
  <g>
    <rect x="176" y="124" style="fill:#AAC1CE;" width="240" height="8"/>
    <rect x="176" y="156" style="fill:#AAC1CE;" width="272" height="8"/>
  </g>
  <rect x="64" y="216" style="fill:#E04F5F;" width="80" height="80"/>
  <g>
    <rect x="176" y="236" style="fill:#AAC1CE;" width="240" height="8"/>
    <rect x="176" y="268" style="fill:#AAC1CE;" width="272" height="8"/>
  </g>
  <rect x="64" y="328" style="fill:#E04F5F;" width="80" height="80"/>
  <g>
    <rect x="176" y="348" style="fill:#AAC1CE;" width="240" height="8"/>
    <rect x="176" y="380" style="fill:#AAC1CE;" width="272" height="8"/>
  </g>
  <g>
    <circle style="fill:#FFFFFF;" cx="104" cy="144" r="16"/>
    <circle style="fill:#FFFFFF;" cx="104" cy="256" r="16"/>
    <circle style="fill:#FFFFFF;" cx="104" cy="368" r="16"/>
  </g>
</symbol>

</svg>
