<?xml version="1.0" encoding="UTF-8"?>
<svg xmlns="http://www.w3.org/2000/svg" style="height: 0; width: 0; position: absolute; visibility: hidden">
  <symbol id="chat-alt" class="h-6 w-6" fill="none" viewBox="0 0 24 24" stroke="currentColor">
    <path stroke-linecap="round" stroke-linejoin="round" stroke-width="2" d="M8 10h.01M12 10h.01M16 10h.01M9 16H5a2 2 0 01-2-2V6a2 2 0 012-2h14a2 2 0 012 2v8a2 2 0 01-2 2h-5l-5 5v-5z" />
  </symbol>

  <symbol id="office-building" class="h-6 w-6" fill="none" viewBox="0 0 24 24" stroke="currentColor">
    <path stroke-linecap="round" stroke-linejoin="round" stroke-width="2" d="M19 21V5a2 2 0 00-2-2H7a2 2 0 00-2 2v16m14 0h2m-2 0h-5m-9 0H3m2 0h5M9 7h1m-1 4h1m4-4h1m-1 4h1m-5 10v-5a1 1 0 011-1h2a1 1 0 011 1v5m-4 0h4" />
  </symbol>

  <symbol id="map" class="h-6 w-6" fill="none" viewBox="0 0 24 24" stroke="currentColor">
    <path stroke-linecap="round" stroke-linejoin="round" stroke-width="2" d="M9 20l-5.447-2.724A1 1 0 013 16.382V5.618a1 1 0 011.447-.894L9 7m0 13l6-3m-6 3V7m6 10l4.553 2.276A1 1 0 0021 18.382V7.618a1 1 0 00-.553-.894L15 4m0 13V4m0 0L9 7" />
  </symbol>

  <symbol id="user" class="h-6 w-6" fill="none" viewBox="0 0 24 24" stroke="currentColor">
    <path stroke-linecap="round" stroke-linejoin="round" stroke-width="2" d="M16 7a4 4 0 11-8 0 4 4 0 018 0zM12 14a7 7 0 00-7 7h14a7 7 0 00-7-7z" />
  </symbol>

  <symbol id="user-fill" class="h-5 w-5" viewBox="0 0 20 20" fill="currentColor">
    <path fill-rule="evenodd" d="M10 9a3 3 0 100-6 3 3 0 000 6zm-7 9a7 7 0 1114 0H3z" clip-rule="evenodd" />
  </symbol>

  <symbol id="user-circle-fill" class="h-5 w-5" viewBox="0 0 20 20" fill="currentColor">
    <path fill-rule="evenodd" d="M18 10a8 8 0 11-16 0 8 8 0 0116 0zm-6-3a2 2 0 11-4 0 2 2 0 014 0zm-2 4a5 5 0 00-4.546 2.916A5.986 5.986 0 0010 16a5.986 5.986 0 004.546-2.084A5 5 0 0010 11z" clip-rule="evenodd" />
  </symbol>

  <symbol id="user-add" class="h-6 w-6" fill="none" viewBox="0 0 24 24" stroke="currentColor">
    <path stroke-linecap="round" stroke-linejoin="round" stroke-width="2" d="M18 9v3m0 0v3m0-3h3m-3 0h-3m-2-5a4 4 0 11-8 0 4 4 0 018 0zM3 20a6 6 0 0112 0v1H3v-1z" />
  </symbol>

  <symbol id="user-add-fill" class="h-5 w-5" viewBox="0 0 20 20" fill="currentColor">
    <path d="M8 9a3 3 0 100-6 3 3 0 000 6zM8 11a6 6 0 016 6H2a6 6 0 016-6zM16 7a1 1 0 10-2 0v1h-1a1 1 0 100 2h1v1a1 1 0 102 0v-1h1a1 1 0 100-2h-1V7z" />
  </symbol>

  <symbol id="user-group" class="h-6 w-6" fill="none" viewBox="0 0 24 24" stroke="currentColor">
    <path stroke-linecap="round" stroke-linejoin="round" stroke-width="2" d="M17 20h5v-2a3 3 0 00-5.356-1.857M17 20H7m10 0v-2c0-.656-.126-1.283-.356-1.857M7 20H2v-2a3 3 0 015.356-1.857M7 20v-2c0-.656.126-1.283.356-1.857m0 0a5.002 5.002 0 019.288 0M15 7a3 3 0 11-6 0 3 3 0 016 0zm6 3a2 2 0 11-4 0 2 2 0 014 0zM7 10a2 2 0 11-4 0 2 2 0 014 0z" />
  </symbol>

  <symbol id="user-group-fill" class="h-5 w-5" viewBox="0 0 20 20" fill="currentColor">
    <path d="M13 6a3 3 0 11-6 0 3 3 0 016 0zM18 8a2 2 0 11-4 0 2 2 0 014 0zM14 15a4 4 0 00-8 0v3h8v-3zM6 8a2 2 0 11-4 0 2 2 0 014 0zM16 18v-3a5.972 5.972 0 00-.75-2.906A3.005 3.005 0 0119 15v3h-3zM4.75 12.094A5.973 5.973 0 004 15v3H1v-3a3 3 0 013.75-2.906z" />
  </symbol>

  <symbol id="users" class="h-6 w-6" fill="none" viewBox="0 0 24 24" stroke="currentColor">
    <path stroke-linecap="round" stroke-linejoin="round" stroke-width="2" d="M12 4.354a4 4 0 110 5.292M15 21H3v-1a6 6 0 0112 0v1zm0 0h6v-1a6 6 0 00-9-5.197M13 7a4 4 0 11-8 0 4 4 0 018 0z" />
  </symbol>

  <symbol id="users-fill" class="h-5 w-5" viewBox="0 0 20 20" fill="currentColor">
    <path d="M9 6a3 3 0 11-6 0 3 3 0 016 0zM17 6a3 3 0 11-6 0 3 3 0 016 0zM12.93 17c.046-.327.07-.66.07-1a6.97 6.97 0 00-1.5-4.33A5 5 0 0119 16v1h-6.07zM6 11a5 5 0 015 5v1H1v-1a5 5 0 015-5z" />
  </symbol>

  <symbol id="plus" class="h-6 w-6" fill="none" viewBox="0 0 24 24" stroke="currentColor">
    <path stroke-linecap="round" stroke-linejoin="round" stroke-width="2" d="M12 4v16m8-8H4" />
  </symbol>

  <symbol id="plus-circle-fill" class="h-5 w-5" viewBox="0 0 20 20" fill="currentColor">
    <path fill-rule="evenodd" d="M10 18a8 8 0 100-16 8 8 0 000 16zm1-11a1 1 0 10-2 0v2H7a1 1 0 100 2h2v2a1 1 0 102 0v-2h2a1 1 0 100-2h-2V7z" clip-rule="evenodd" />
  </symbol>

  <symbol id="plus-circle" class="h-6 w-6" fill="none" viewBox="0 0 24 24" stroke="currentColor">
    <path stroke-linecap="round" stroke-linejoin="round" stroke-width="2" d="M12 9v3m0 0v3m0-3h3m-3 0H9m12 0a9 9 0 11-18 0 9 9 0 0118 0z" />
  </symbol>

  <symbol id="view-grid" class="h-6 w-6" fill="none" viewBox="0 0 24 24" stroke="currentColor">
    <path stroke-linecap="round" stroke-linejoin="round" stroke-width="2" d="M4 6a2 2 0 012-2h2a2 2 0 012 2v2a2 2 0 01-2 2H6a2 2 0 01-2-2V6zM14 6a2 2 0 012-2h2a2 2 0 012 2v2a2 2 0 01-2 2h-2a2 2 0 01-2-2V6zM4 16a2 2 0 012-2h2a2 2 0 012 2v2a2 2 0 01-2 2H6a2 2 0 01-2-2v-2zM14 16a2 2 0 012-2h2a2 2 0 012 2v2a2 2 0 01-2 2h-2a2 2 0 01-2-2v-2z" />
  </symbol>
  
  <symbol id="view-grid-fill" class="h-5 w-5" viewBox="0 0 20 20" fill="currentColor">
    <path d="M5 3a2 2 0 00-2 2v2a2 2 0 002 2h2a2 2 0 002-2V5a2 2 0 00-2-2H5zM5 11a2 2 0 00-2 2v2a2 2 0 002 2h2a2 2 0 002-2v-2a2 2 0 00-2-2H5zM11 5a2 2 0 012-2h2a2 2 0 012 2v2a2 2 0 01-2 2h-2a2 2 0 01-2-2V5zM11 13a2 2 0 012-2h2a2 2 0 012 2v2a2 2 0 01-2 2h-2a2 2 0 01-2-2v-2z" />
  </symbol>

  <symbol id="view-list" class="h-6 w-6" fill="none" viewBox="0 0 24 24" stroke="currentColor">
    <path stroke-linecap="round" stroke-linejoin="round" stroke-width="2" d="M4 6h16M4 10h16M4 14h16M4 18h16" />
  </symbol>

  <symbol id="view-list-fill" class="h-5 w-5" viewBox="0 0 20 20" fill="currentColor">
    <path fill-rule="evenodd" d="M3 4a1 1 0 011-1h12a1 1 0 110 2H4a1 1 0 01-1-1zm0 4a1 1 0 011-1h12a1 1 0 110 2H4a1 1 0 01-1-1zm0 4a1 1 0 011-1h12a1 1 0 110 2H4a1 1 0 01-1-1zm0 4a1 1 0 011-1h12a1 1 0 110 2H4a1 1 0 01-1-1z" clip-rule="evenodd" />
  </symbol>

  <symbol id="pencil" class="h-6 w-6" fill="none" viewBox="0 0 24 24" stroke="currentColor">
    <path stroke-linecap="round" stroke-linejoin="round" stroke-width="2" d="M15.232 5.232l3.536 3.536m-2.036-5.036a2.5 2.5 0 113.536 3.536L6.5 21.036H3v-3.572L16.732 3.732z" />
  </symbol>

  <symbol id="pencil-fill" class="h-5 w-5" viewBox="0 0 20 20" fill="currentColor">
    <path d="M13.586 3.586a2 2 0 112.828 2.828l-.793.793-2.828-2.828.793-.793zM11.379 5.793L3 14.172V17h2.828l8.38-8.379-2.83-2.828z" />
  </symbol>

  <symbol id="trash" class="h-6 w-6" fill="none" viewBox="0 0 24 24" stroke="currentColor">
    <path stroke-linecap="round" stroke-linejoin="round" stroke-width="2" d="M19 7l-.867 12.142A2 2 0 0116.138 21H7.862a2 2 0 01-1.995-1.858L5 7m5 4v6m4-6v6m1-10V4a1 1 0 00-1-1h-4a1 1 0 00-1 1v3M4 7h16" />
  </symbol>

  <symbol id="trash-fill" class="h-5 w-5" viewBox="0 0 20 20" fill="currentColor">
    <path fill-rule="evenodd" d="M9 2a1 1 0 00-.894.553L7.382 4H4a1 1 0 000 2v10a2 2 0 002 2h8a2 2 0 002-2V6a1 1 0 100-2h-3.382l-.724-1.447A1 1 0 0011 2H9zM7 8a1 1 0 012 0v6a1 1 0 11-2 0V8zm5-1a1 1 0 00-1 1v6a1 1 0 102 0V8a1 1 0 00-1-1z" clip-rule="evenodd" />
  </symbol>

  <symbol id="exclamation" class="h-6 w-6" fill="none" viewBox="0 0 24 24" stroke="currentColor">
    <path stroke-linecap="round" stroke-linejoin="round" stroke-width="2" d="M12 9v2m0 4h.01m-6.938 4h13.856c1.54 0 2.502-1.667 1.732-3L13.732 4c-.77-1.333-2.694-1.333-3.464 0L3.34 16c-.77 1.333.192 3 1.732 3z" />
  </symbol>

  <symbol id="exclamation-fill" class="h-5 w-5" viewBox="0 0 20 20" fill="currentColor">
    <path fill-rule="evenodd" d="M8.257 3.099c.765-1.36 2.722-1.36 3.486 0l5.58 9.92c.75 1.334-.213 2.98-1.742 2.98H4.42c-1.53 0-2.493-1.646-1.743-2.98l5.58-9.92zM11 13a1 1 0 11-2 0 1 1 0 012 0zm-1-8a1 1 0 00-1 1v3a1 1 0 002 0V6a1 1 0 00-1-1z" clip-rule="evenodd" />
  </symbol>

  <symbol id="check" class="h-6 w-6" fill="none" viewBox="0 0 24 24" stroke="currentColor">
    <path stroke-linecap="round" stroke-linejoin="round" stroke-width="2" d="M5 13l4 4L19 7" />
  </symbol>

  <symbol id="check-circle" class="h-6 w-6" fill="none" viewBox="0 0 24 24" stroke="currentColor">
    <path stroke-linecap="round" stroke-linejoin="round" stroke-width="2" d="M9 12l2 2 4-4m6 2a9 9 0 11-18 0 9 9 0 0118 0z" />
  </symbol>

  <synbol id="check-circle-fill" class="h-5 w-5" viewBox="0 0 20 20" fill="currentColor">
    <path fill-rule="evenodd" d="M10 18a8 8 0 100-16 8 8 0 000 16zm3.707-9.293a1 1 0 00-1.414-1.414L9 10.586 7.707 9.293a1 1 0 00-1.414 1.414l2 2a1 1 0 001.414 0l4-4z" clip-rule="evenodd" />
  </synbol>

  <symbol id="dot3-h" class="h-6 w-6" fill="none" viewBox="0 0 24 24" stroke="currentColor">
    <path stroke-linecap="round" stroke-linejoin="round" stroke-width="2" d="M5 12h.01M12 12h.01M19 12h.01M6 12a1 1 0 11-2 0 1 1 0 012 0zm7 0a1 1 0 11-2 0 1 1 0 012 0zm7 0a1 1 0 11-2 0 1 1 0 012 0z" />
  </symbol>

  <symbol id="server" class="h-6 w-6" fill="none" viewBox="0 0 24 24" stroke="currentColor">
    <path stroke-linecap="round" stroke-linejoin="round" stroke-width="2" d="M5 12h14M5 12a2 2 0 01-2-2V6a2 2 0 012-2h14a2 2 0 012 2v4a2 2 0 01-2 2M5 12a2 2 0 00-2 2v4a2 2 0 002 2h14a2 2 0 002-2v-4a2 2 0 00-2-2m-2-4h.01M17 16h.01" />
  </symbol>

  <symbol id="server-fill" class="h-5 w-5" viewBox="0 0 20 20" fill="currentColor">
    <path fill-rule="evenodd" d="M2 5a2 2 0 012-2h12a2 2 0 012 2v2a2 2 0 01-2 2H4a2 2 0 01-2-2V5zm14 1a1 1 0 11-2 0 1 1 0 012 0zM2 13a2 2 0 012-2h12a2 2 0 012 2v2a2 2 0 01-2 2H4a2 2 0 01-2-2v-2zm14 1a1 1 0 11-2 0 1 1 0 012 0z" clip-rule="evenodd" />
  </symbol>

  <symbol id="calendar" class="h-6 w-6" fill="none" viewBox="0 0 24 24" stroke="currentColor">
    <path stroke-linecap="round" stroke-linejoin="round" stroke-width="2" d="M8 7V3m8 4V3m-9 8h10M5 21h14a2 2 0 002-2V7a2 2 0 00-2-2H5a2 2 0 00-2 2v12a2 2 0 002 2z" />
  </symbol>

  <symbol id="click" class="h-6 w-6" fill="none" viewBox="0 0 24 24" stroke="currentColor">
    <path stroke-linecap="round" stroke-linejoin="round" stroke-width="2" d="M15 15l-2 5L9 9l11 4-5 2zm0 0l5 5M7.188 2.239l.777 2.897M5.136 7.965l-2.898-.777M13.95 4.05l-2.122 2.122m-5.657 5.656l-2.12 2.122" />
  </symbol>

  <symbol id="collection" class="h-6 w-6" fill="none" viewBox="0 0 24 24" stroke="currentColor">
    <path stroke-linecap="round" stroke-linejoin="round" stroke-width="2" d="M19 11H5m14 0a2 2 0 012 2v6a2 2 0 01-2 2H5a2 2 0 01-2-2v-6a2 2 0 012-2m14 0V9a2 2 0 00-2-2M5 11V9a2 2 0 012-2m0 0V5a2 2 0 012-2h6a2 2 0 012 2v2M7 7h10" />
  </symbol>

  <symbol id="cancel" class="h-6 w-6" fill="none" viewBox="0 0 24 24" stroke="currentColor">
    <path stroke-linecap="round" stroke-linejoin="round" stroke-width="2" d="M10 14l2-2m0 0l2-2m-2 2l-2-2m2 2l2 2m7-2a9 9 0 11-18 0 9 9 0 0118 0z" />
  </symbol>

  <symbol id="ban" class="h-6 w-6" fill="none" viewBox="0 0 24 24" stroke="currentColor">
    <path stroke-linecap="round" stroke-linejoin="round" stroke-width="2" d="M18.364 18.364A9 9 0 005.636 5.636m12.728 12.728A9 9 0 015.636 5.636m12.728 12.728L5.636 5.636" />
  </symbol>

  <symbol id="flag" class="h-6 w-6" fill="none" viewBox="0 0 24 24" stroke="currentColor">
    <path stroke-linecap="round" stroke-linejoin="round" stroke-width="2" d="M3 21v-4m0 0V5a2 2 0 012-2h6.5l1 1H21l-3 6 3 6h-8.5l-1-1H5a2 2 0 00-2 2zm9-13.5V9" />
  </symbol>

  <symbol id="view-grid-add" class="h-6 w-6" fill="none" viewBox="0 0 24 24" stroke="currentColor">
    <path stroke-linecap="round" stroke-linejoin="round" stroke-width="2" d="M17 14v6m-3-3h6M6 10h2a2 2 0 002-2V6a2 2 0 00-2-2H6a2 2 0 00-2 2v2a2 2 0 002 2zm10 0h2a2 2 0 002-2V6a2 2 0 00-2-2h-2a2 2 0 00-2 2v2a2 2 0 002 2zM6 20h2a2 2 0 002-2v-2a2 2 0 00-2-2H6a2 2 0 00-2 2v2a2 2 0 002 2z" />
  </symbol>

  <symbol id="folder" class="h-6 w-6" fill="none" viewBox="0 0 24 24" stroke="currentColor">
    <path stroke-linecap="round" stroke-linejoin="round" stroke-width="2" d="M3 7v10a2 2 0 002 2h14a2 2 0 002-2V9a2 2 0 00-2-2h-6l-2-2H5a2 2 0 00-2 2z" />
  </symbol>

  <symbol id="folder-fill" class="h-5 w-5" viewBox="0 0 20 20" fill="currentColor">
    <path d="M2 6a2 2 0 012-2h5l2 2h5a2 2 0 012 2v6a2 2 0 01-2 2H4a2 2 0 01-2-2V6z" />
  </symbol>

  <symbol id="music-note" class="h-6 w-6" fill="none" viewBox="0 0 24 24" stroke="currentColor">
    <path stroke-linecap="round" stroke-linejoin="round" stroke-width="2" d="M9 19V6l12-3v13M9 19c0 1.105-1.343 2-3 2s-3-.895-3-2 1.343-2 3-2 3 .895 3 2zm12-3c0 1.105-1.343 2-3 2s-3-.895-3-2 1.343-2 3-2 3 .895 3 2zM9 10l12-3" />
  </symbol>

  <symbol id="music-note-fill" class="h-5 w-5" viewBox="0 0 20 20" fill="currentColor">
    <path d="M18 3a1 1 0 00-1.196-.98l-10 2A1 1 0 006 5v9.114A4.369 4.369 0 005 14c-1.657 0-3 .895-3 2s1.343 2 3 2 3-.895 3-2V7.82l8-1.6v5.894A4.37 4.37 0 0015 12c-1.657 0-3 .895-3 2s1.343 2 3 2 3-.895 3-2V3z" />
  </symbol>

  <symbol id="video-camera" class="h-6 w-6" fill="none" viewBox="0 0 24 24" stroke="currentColor">
    <path stroke-linecap="round" stroke-linejoin="round" stroke-width="2" d="M15 10l4.553-2.276A1 1 0 0121 8.618v6.764a1 1 0 01-1.447.894L15 14M5 18h8a2 2 0 002-2V8a2 2 0 00-2-2H5a2 2 0 00-2 2v8a2 2 0 002 2z" />
  </symbol>

  <symbol id="video-camera-fill" class="h-5 w-5" viewBox="0 0 20 20" fill="currentColor">
    <path d="M2 6a2 2 0 012-2h6a2 2 0 012 2v8a2 2 0 01-2 2H4a2 2 0 01-2-2V6zM14.553 7.106A1 1 0 0014 8v4a1 1 0 00.553.894l2 1A1 1 0 0018 13V7a1 1 0 00-1.447-.894l-2 1z" />
  </symbol>

  <symbol id="clock" class="h-6 w-6" fill="none" viewBox="0 0 24 24" stroke="currentColor">
    <path stroke-linecap="round" stroke-linejoin="round" stroke-width="2" d="M12 8v4l3 3m6-3a9 9 0 11-18 0 9 9 0 0118 0z" />
  </symbol>

  <symbol id="mic" class="h-6 w-6" fill="none" viewBox="0 0 24 24" stroke="currentColor">
    <path stroke-linecap="round" stroke-linejoin="round" stroke-width="2" d="M19 11a7 7 0 01-7 7m0 0a7 7 0 01-7-7m7 7v4m0 0H8m4 0h4m-4-8a3 3 0 01-3-3V5a3 3 0 116 0v6a3 3 0 01-3 3z" />
  </symbol>

  <symbol id="archive" class="h-6 w-6" fill="none" viewBox="0 0 24 24" stroke="currentColor">
    <path stroke-linecap="round" stroke-linejoin="round" stroke-width="2" d="M5 8h14M5 8a2 2 0 110-4h14a2 2 0 110 4M5 8v10a2 2 0 002 2h10a2 2 0 002-2V8m-9 4h4" />
  </symbol>

  <symbol id="logo-circle" viewBox="0 0 320 320">
    <linearGradient id="grad1" x1="0%" y1="0%" x2="100%" y2="0%">
      <stop offset="0%" style="stop-color:#787878;stop-opacity:1" />
      <stop offset="100%" style="stop-color:#565656;stop-opacity:1" />
    </linearGradient>
    <linearGradient id="grad2" x1="80%" y1="0%" x2="100%" y2="80%">
      <stop offset="0%" style="stop-color:#22d3ee;stop-opacity:1" />
      <stop offset="50%" style="stop-color:#07BABD;stop-opacity:1" />
      <stop offset="90%" style="stop-color:#118284;stop-opacity:1" />
      <stop offset="100%" style="stop-color:#00AB59;stop-opacity:1" />
    </linearGradient>
    <circle stroke="#28A58D" stroke-width="20" fill="#4E5D5A" cx="160" cy="160" r="140"></circle>
    <g transform="translate(75, 85)" id="Rectangle" stroke-width="5">
      <rect stroke="#979797" fill="#FFFFFF" x="121" y="1" width="48" height="150" rx="8"></rect>
      <path d="M42,1 C43,1 45,1 46,3 C48,4 49,6 49,8 L49,8 L49,142 C49,143 48,145 46,146 C45,148 43,149 42,149 L42,149 L8,149 C6,149 4,148 3,146 C1,145 1,143 1,142 L1,142 L1,8 C1,6 1,4 3,3 C4,1 6,1 8,1 L8,1 Z" stroke="#0ea5e9" fill="#22d3ee">
      </path>
      
      <path d="M102,51 C103,51 105,51 106,53 C108,54 109,56 109,58 L109,58 L109,142 C109,143 108,145 106,146 C105,148 103,149 102,149 L102,149 L68,149 C66,149 64,148 63,146 C61,145 61,143 61,142 L61,142 L61,58 C61,56 61,54 63,53 C64,51 66,51 68,51 L68,51 Z" stroke="#979797" fill="#FFFFFF"></path>
    </g>
  </symbol>

  <symbol id="setup" x="0px" y="0px" viewBox="0 0 511.998 511.998" style="enable-background:new 0 0 511.998 511.998;" xml:space="preserve">
    <path style="fill:#68733A;" d="M383.796,231.041c3.426,17.223,3.272,34.772-0.169,51.609l31.42,22.883
      c6.225,3.617,2.786,21.135-7.683,39.132c-10.45,17.972-23.954,29.622-30.192,26.059l-0.028-0.01l-35.345-15.897c-6.456,5.662-13.564,10.772-21.299,15.208c-7.653,4.391-15.565,7.919-23.621,10.622l-4.113,38.471l-0.006,0.028c-0.073,7.182-16.947,12.959-37.736,12.908c-20.82-0.051-37.68-5.924-37.657-13.125l-3.865-38.421c-16.395-5.527-31.733-14.298-44.956-26.032l-35.257,15.64l-0.029,0.012c-6.258,3.533-19.689-8.183-30.027-26.206c-10.354-18.049-13.683-35.584-7.437-39.167l31.297-22.542c-3.454-17.337-3.28-35.004,0.223-51.944l-31.217-22.734l-0.026-0.019c-6.187-3.651-2.743-21.142,7.707-39.118c10.471-17.994,23.997-29.659,30.222-26.044l35.285,15.87c6.404-5.591,13.44-10.641,21.095-15.033c7.736-4.437,15.739-7.994,23.884-10.71l4.121-38.533c0.023-7.201,16.919-12.99,37.739-12.941c20.792,0.054,37.63,5.911,37.658,13.092l0.002,0.033l3.889,38.676c16.273,5.533,31.498,14.26,44.636,25.908l35.552-15.767c6.247-3.583,19.701,8.144,30.055,26.191c10.339,18.024,13.672,35.531,7.464,39.15l-0.026,0.021L383.796,231.041L383.796,231.041z"/>
    <path style="fill:#56592F;" d="M377.267,370.927l-35.345-15.897c-6.456,5.662-13.564,10.772-21.299,15.208
      c-7.653,4.391-15.565,7.919-23.62,10.623l-4.115,38.47l-0.006,0.029c-0.073,7.182-16.947,12.958-37.736,12.907c-20.82-0.05-37.68-5.924-37.657-13.124l-3.866-38.421c-16.393-5.529-31.732-14.299-44.955-26.032l-35.257,15.64l-0.029,0.012c-6.258,3.533-19.689-8.184-30.027-26.207h-0.001l304.685-174.78l0.001,0.001c10.339,18.024,13.672,35.531,7.464,39.149l-0.026,0.021l-31.56,22.729c3.426,17.223,3.271,34.772-0.169,51.609l31.42,22.883c6.225,3.616,2.784,21.134-7.683,39.132c-10.45,17.972-23.954,29.622-30.192,26.057L377.267,370.927z"/>
    <path style="fill:#30320A;" d="M308.792,226.008c16.894,29.45,6.697,67.028-22.776,83.936c-29.473,16.907-67.06,6.738-83.954-22.712c-16.894-29.448-6.697-67.027,22.776-83.935C254.312,186.39,291.898,196.559,308.792,226.008L308.792,226.008z"/>
    <path d="M241.279,497.975c-0.229,0-0.46-0.007-0.692-0.022c-58.948-3.676-114.437-28.725-156.244-70.527
      c-29.607-29.607-50.806-66.077-61.965-105.777l-0.845,3.156c-1.566,5.844-7.566,9.31-13.414,7.743
      c-5.843-1.566-9.308-7.572-7.743-13.414l13.73-51.225c0.181-0.747,0.441-1.466,0.768-2.148c0.694-1.449,1.685-2.697,2.876-3.684c1.241-1.032,2.714-1.797,4.341-2.203c1.206-0.303,2.473-0.404,3.754-0.273c1.306,0.129,2.551,0.49,3.687,1.043c1.437,0.696,2.674,1.685,3.654,2.871c1.021,1.232,1.779,2.694,2.184,4.306c0.184,0.728,0.295,1.479,0.325,2.242c3.398,53.525,26.169,103.903,64.137,141.874c38.028,38.025,88.501,60.81,142.119,64.154c6.037,0.377,10.625,5.576,10.249,11.613C251.836,493.509,247.016,497.975,241.279,497.975z M255.757,441.658c-22.057,0-47.765-6.098-48.445-23.222l-3.21-30.918c-13.121-5.153-25.303-12.205-36.356-21.048l-28.5,12.734c-15.172,7.877-33.276-11.326-44.276-30.373c-11.026-19.107-18.591-44.422-4.108-53.57l25.3-18.331c-1.015-6.871-1.527-13.833-1.527-20.779c0-7.045,0.526-14.1,1.566-21.056
      l-25.34-18.359c-14.488-9.149-6.918-34.463,4.108-53.568c11.007-19.057,29.12-38.271,44.296-30.366l28.726,12.839c10.982-8.745,23.071-15.728,36.076-20.841l3.244-31.238c0.68-17.124,26.388-23.223,48.445-23.223
      c21.989,0,47.661,6.076,48.441,23.137l3.25,31.325c13.009,5.112,25.098,12.096,36.078,20.841l28.681-12.817
      c15.174-7.969,33.309,11.245,44.336,30.346c10.989,19.031,18.562,44.282,4.207,53.502L395.313,235.1
      c1.04,6.948,1.566,14.002,1.566,21.053c0,6.952-0.512,13.913-1.526,20.777l25.382,18.388c14.372,9.212,6.798,34.474-4.194,53.512c-5.603,9.705-12.301,18.181-18.86,23.868c-12.156,10.539-20.945,8.805-25.439,6.491l-28.472-12.722c-11.052,8.844-23.236,15.897-36.359,21.051l-3.216,31.005C303.417,435.582,277.746,441.658,255.757,441.658z M228.965,414.883c3.025,1.761,12.05,4.87,26.792,4.87c14.748,0,23.774-3.112,26.796-4.873l3.779-36.437c0.443-4.269,3.338-7.886,7.408-9.252c15.149-5.089,28.935-13.071,40.978-23.727c3.216-2.846,7.802-3.551,11.726-1.797l33.516,14.977c3.038-1.739,10.242-7.999,17.614-20.767c7.376-12.774,9.193-22.148,9.177-25.642l-29.779-21.574c-3.468-2.512-5.154-6.816-4.314-11.016c1.538-7.695,2.317-15.599,2.317-23.493c0-7.987-0.796-15.971-2.366-23.735c-0.851-4.207,0.835-8.523,4.31-11.041l29.831-21.608c0.017-3.493-1.8-12.867-9.177-25.642c-7.372-12.768-14.578-19.031-17.615-20.768l-33.745,15.08c-3.916,1.75-8.491,1.054-11.707-1.78c-11.987-10.557-25.691-18.473-40.735-23.528c-4.068-1.367-6.962-4.983-7.405-9.252l-3.814-36.757c-3.019-1.761-12.045-4.873-26.796-4.873c-14.741,0-23.766,3.109-26.792,4.87l-3.816,36.758c-0.443,4.267-3.337,7.883-7.403,9.25c-15.039,5.058-28.746,12.975-40.74,23.532c-3.219,2.831-7.791,3.527-11.705,1.778l-33.745-15.08c-3.036,1.738-10.243,7.998-17.619,20.77c-7.37,12.767-9.19,22.136-9.177,25.636l29.833,21.614c3.473,2.517,5.159,6.831,4.31,11.035c-1.57,7.78-2.366,15.767-2.366,23.743c0,7.885,0.781,15.79,2.32,23.499c0.837,4.198-0.847,8.5-4.315,11.013l-29.782,21.576c-0.012,3.5,1.81,12.868,9.178,25.639c7.376,12.769,14.581,19.031,17.619,20.766l33.513-14.976c3.926-1.752,8.508-1.05,11.727,1.797c12.043,10.654,25.831,18.636,40.977,23.722c4.068,1.367,6.965,4.983,7.408,9.254L228.965,414.883z M255.757,328.32c-39.783,0-72.15-32.367-72.15-72.15c0-39.784,32.367-72.152,72.15-72.152c39.786,0,72.154,32.367,72.154,72.152C327.911,295.953,295.543,328.32,255.757,328.32z M255.757,205.924c-27.706,0-50.245,22.54-50.245,50.247s22.539,50.245,50.245,50.245c27.707,0,50.249-22.539,50.249-50.245S283.464,205.924,255.757,205.924z M486.785,252.451c-5.738,0-10.558-4.465-10.921-10.27c-3.345-53.625-26.129-104.098-64.155-142.12C373.682,62.033,323.21,39.249,269.59,35.906c-6.037-0.376-10.626-5.575-10.25-11.612c0.376-6.037,5.602-10.618,11.612-10.25c58.953,3.675,114.442,28.722,156.246,70.527c29.758,29.756,51.024,66.447,62.136,106.388l1.131-4.217c1.565-5.843,7.573-9.31,13.413-7.745c5.844,1.565,9.31,7.572,7.745,13.413l-13.789,51.466c-0.551,2.057-1.651,3.82-3.103,5.171c-1.838,1.933-4.382,3.203-7.253,3.382C487.246,252.444,487.013,252.451,486.785,252.451z"/>
  </symbol>

  <symbol id="mic-color" x="0px" y="0px" viewBox="0 0 512 512" style="enable-background:new 0 0 512 512;" xml:space="preserve">
    <rect x="247.467" y="407.268" style="fill:#605353;" width="17.067" height="81.192"/>
    <path style="fill:#8B7E7F;" d="M256,415.807c-81.702,0-148.169-66.469-148.169-148.171v-55.855h17.067v55.855c0,72.291,58.812,131.104,131.103,131.104s131.103-58.813,131.103-131.104v-55.855h17.067v55.855C404.169,349.338,337.702,415.807,256,415.807z"/>
    <rect x="93.093" y="203.253" style="fill:#605353;" width="325.814" height="17.067"/>
    <g>
      <path style="fill:#C2B8B9;" d="M93.091,231.952c-4.713,0-8.533-3.821-8.533-8.533v-23.273c0-4.713,3.821-8.533,8.533-8.533c4.713,0,8.533,3.821,8.533,8.533v23.273C101.624,228.131,97.803,231.952,93.091,231.952z"/>
      <path style="fill:#C2B8B9;" d="M418.909,231.952c-4.713,0-8.533-3.821-8.533-8.533v-23.273c0-4.713,3.821-8.533,8.533-8.533s8.533,3.821,8.533,8.533v23.273C427.443,228.131,423.622,231.952,418.909,231.952z"/>
    </g>
    <path style="fill:#8B7E7F;" d="M256,0c-51.413,0-93.091,41.678-93.091,93.091v123.992h186.181V93.091
      C349.091,41.678,307.413,0,256,0z"/>
    <g>
      <path style="fill:#463836;" d="M395.636,512H116.364v-11.636c0-12.8,10.473-23.273,23.273-23.273h232.727
        c12.8,0,23.273,10.473,23.273,23.273V512H395.636z"/>
      <path style="fill:#463836;" d="M151.273,194.327v26.376l11.378,8.533l-11.378,8.533v29.867c0,57.747,46.981,104.727,104.727,104.727s104.727-46.981,104.727-104.727v-29.867l-11.378-8.533l11.378-8.533v-26.376
        L151.273,194.327L151.273,194.327z"/>
    </g>
    <rect x="151.279" y="220.706" style="fill:#605353;" width="209.453" height="17.067"/>
    <g>
      <circle style="fill:#463836;" cx="209.454" cy="147.786" r="8.533"/>
      <circle style="fill:#463836;" cx="256" cy="147.786" r="8.533"/>
      <circle style="fill:#463836;" cx="302.547" cy="147.786" r="8.533"/>
      <circle style="fill:#463836;" cx="209.454" cy="100.659" r="8.533"/>
      <circle style="fill:#463836;" cx="256" cy="100.659" r="8.533"/>
      <circle style="fill:#463836;" cx="302.547" cy="100.659" r="8.533"/>
      <circle style="fill:#463836;" cx="212.332" cy="54.109" r="8.533"/>
      <circle style="fill:#463836;" cx="256" cy="54.109" r="8.533"/>
      <circle style="fill:#463836;" cx="300.794" cy="54.109" r="8.533"/>
    </g>

  </symbol>

  <symbol id="save-color" x="0px" y="0px" viewBox="0 0 280.028 280.028" style="enable-background:new 0 0 280.028 280.028;" xml:space="preserve">
    <g>
      <path style="fill:#324D5B;" d="M17.502,0h245.024c9.661,0,17.502,7.832,17.502,17.502v245.024c0,9.67-7.841,17.502-17.502,17.502H17.502C7.841,280.027,0,272.195,0,262.526V17.502C0,7.841,7.841,0,17.502,0z"/>
      <path style="fill:#CCD0D2;" d="M52.505,175.017h175.017c9.661,0,17.502,7.841,17.502,17.502v87.509H35.003v-87.509C35.003,182.858,42.844,175.017,52.505,175.017z"/>
      <path style="fill:#E4E7E7;" d="M52.505,157.515h175.017c9.661,0,17.502,7.841,17.502,17.502v26.253H35.003v-26.253C35.003,165.356,42.844,157.515,52.505,157.515z"/>
      <path style="fill:#2B414D;" d="M245.024,0v105.01c0,9.67-7.841,17.502-17.502,17.502H52.505c-9.661,0-17.502-7.832-17.502-17.502V0H245.024z"/>
      <path style="fill:#CCD0D2;" d="M122.512,0v96.259c0,4.83,3.92,8.751,8.751,8.751h87.509c4.839,0,8.751-3.92,8.751-8.751V0H122.512z M210.021,78.758c0,4.83-3.912,8.751-8.751,8.751h-8.751c-4.839,0-8.751-3.92-8.751-8.751V26.253c0-4.83,3.912-8.751,8.751-8.751h8.751c4.839,0,8.751,3.92,8.751,8.751V78.758z"/>
    </g>
  </symbol>

  <symbol id="map1" x="0px" y="0px" viewBox="0 0 279.923 279.923" style="enable-background:new 0 0 279.923 279.923;" xml:space="preserve">
    <g>
      <path style="fill:#4ED5BD;" d="M279.634,279.739L218.5,183.715l-156.658,0.184l-61.553,95.84l140.355,0.184L279.634,279.739z"/>
      <path style="fill:#F4B459;" d="M140.302,0C91.998,0,52.838,37.042,52.838,82.739c0,1.82,1.654,26.48,8.086,37.594c21.641,46.94,79.291,98.692,79.379,98.508c0.079,0.271,57.974-51.788,79.51-98.771c7.517-15.165,7.955-36.439,7.955-37.331 C227.767,37.051,188.607,0,140.302,0z M140.294,122.547c-19.331,0-35.003-15.673-35.003-35.003s15.673-35.003,35.003-35.003s35.003,15.673,35.003,35.003S159.624,122.547,140.294,122.547z"/>
      <path style="fill:#CCA032;" d="M140.294,43.789c-24.161,0-43.754,19.584-43.754,43.754c0,24.179,19.593,43.754,43.754,43.754c24.179,0,43.754-19.584,43.754-43.754C184.048,63.382,164.472,43.789,140.294,43.789z M140.294,113.796c-14.5,0-26.253-11.752-26.253-26.253c0-14.491,11.752-26.253,26.253-26.253c14.5,0,26.253,11.761,26.253,26.253	C166.546,102.044,154.794,113.796,140.294,113.796z"/>
      <path style="fill:#26A6D1;" d="M201.55,245.059c-10.947,4.892-34.583,8.891-43.903,8.856c-8.033-0.053-32.448-5.18-43.606-8.856c-1.068-0.341-31.276-15.191-52.505-17.502c-22.087-2.371-26.253,0-26.253,0l-7.543,9.433L0.289,279.739l140.355,0.184l138.99-0.184l-37.55-58.963C232.361,226.682,203.466,244.201,201.55,245.059z"/>
    </g>
  </symbol>

  <symbol id="calendar_time" x="0px" y="0px" viewBox="0 0 512 512" style="enable-background:new 0 0 512 512;" xml:space="preserve">
    <path style="fill:#E6EAEA;" d="M384.267,58.512H8.017C3.588,58.512,0,62.101,0,66.529V374.37c0,4.428,3.588,8.017,8.017,8.017
      h376.251c4.428,0,8.017-3.588,8.017-8.017V66.529C392.284,62.102,388.696,58.512,384.267,58.512z"/>
    <path style="fill:#CDD4D5;" d="M8.017,58.512C3.588,58.512,0,62.101,0,66.529V374.37c0,4.428,3.588,8.017,8.017,8.017h188.125
      V58.512C196.142,58.512,8.017,58.512,8.017,58.512z"/>
    <rect x="59.324" y="169.142" style="fill:#687F82;" width="68.409" height="68.409"/>
    <rect x="264.551" y="169.142" style="fill:#9BAAAB;" width="68.409" height="68.409"/>
    <rect x="59.324" y="271.755" style="fill:#687F82;" width="68.409" height="68.409"/>
    <g>
      <rect x="161.937" y="271.755" style="fill:#9BAAAB;" width="68.409" height="68.409"/>
      <rect x="161.937" y="169.142" style="fill:#9BAAAB;" width="68.409" height="68.409"/>
      <rect x="264.551" y="271.755" style="fill:#9BAAAB;" width="68.409" height="68.409"/>
    </g>
    <g>
      <rect x="161.937" y="169.142" style="fill:#687F82;" width="34.205" height="68.409"/>
      <rect x="161.937" y="271.755" style="fill:#687F82;" width="34.205" height="68.409"/>
    </g>
    <path style="fill:#4ACFD9;" d="M213.244,7.205H179.04c-4.428,0-8.017,3.588-8.017,8.017v102.614c0,4.428,3.588,8.017,8.017,8.017h34.205c4.428,0,8.017-3.588,8.017-8.017V15.222C221.261,10.795,217.673,7.205,213.244,7.205z"/>
    <path style="fill:#0295AA;" d="M179.04,7.205c-4.428,0-8.017,3.588-8.017,8.017v102.614c0,4.428,3.588,8.017,8.017,8.017h17.102 V7.205C196.142,7.205,179.04,7.205,179.04,7.205z"/>
    <path style="fill:#4ACFD9;" d="M341.511,7.205h-34.205c-4.428,0-8.017,3.588-8.017,8.017v102.614c0,4.428,3.588,8.017,8.017,8.017h34.205c4.428,0,8.017-3.588,8.017-8.017V15.222C349.528,10.795,345.94,7.205,341.511,7.205z"/>
    <path style="fill:#0295AA;" d="M84.977,7.205H50.772c-4.428,0-8.017,3.588-8.017,8.017v102.614c0,4.428,3.588,8.017,8.017,8.017h34.205c4.428,0,8.017-3.588,8.017-8.017V15.222C92.994,10.795,89.405,7.205,84.977,7.205z"/>
    <path style="fill:#FF8C29;" d="M367.165,215.124c-79.862,0-144.835,64.973-144.835,144.835s64.973,144.835,144.835,144.835	S512,439.822,512,359.96S447.027,215.124,367.165,215.124z"/>
    <g>
      <path style="fill:#FFFFFF;" d="M477.261,367.976c-4.428,0-8.017-3.588-8.017-8.017c0-11.734-1.983-23.243-5.895-34.208c-1.488-4.17,0.687-8.755,4.858-10.244c4.167-1.487,8.756,0.686,10.244,4.858c4.529,12.697,6.826,26.019,6.826,39.594 C485.278,364.387,481.689,367.976,477.261,367.976z"/>
      <path style="fill:#FFFFFF;" d="M457.729,305.425c-2.541,0-5.04-1.206-6.597-3.451c-13.54-19.54-33.509-33.84-56.227-40.264c-4.26-1.205-6.737-5.634-5.533-9.896c1.205-4.261,5.633-6.739,9.896-5.533c26.289,7.433,49.388,23.969,65.043,46.561c2.52,3.638,1.615,8.633-2.025,11.155C460.895,304.962,459.302,305.425,457.729,305.425z"/>
    </g>
    <path style="fill:#E6EAEA;" d="M367.165,269.123c-50.087,0-90.837,40.748-90.837,90.836s40.749,90.837,90.837,90.837s90.837-40.749,90.837-90.837S417.252,269.123,367.165,269.123z"/>
    <path style="fill:#FD6A33;" d="M222.33,359.96c0,79.862,64.973,144.835,144.835,144.835v-289.67	C287.303,215.124,222.33,280.097,222.33,359.96z"/>
    <path style="fill:#CDD4D5;" d="M276.328,359.96c0,50.087,40.749,90.837,90.837,90.837V269.123 C317.078,269.123,276.328,309.871,276.328,359.96z"/>
    <path style="fill:#F0353D;" d="M414.196,373.836h-47.031c-4.428,0-8.017-3.588-8.017-8.017v-47.031c0-4.428,3.588-8.017,8.017-8.017c4.428,0,8.017,3.588,8.017,8.017v39.015h39.015c4.428,0,8.017,3.588,8.017,8.017C422.213,370.248,418.625,373.836,414.196,373.836z"/>
  </symbol>

  <symbol id="global-color" x="0px" y="0px" viewBox="0 0 512 512" style="enable-background:new 0 0 512 512;" xml:space="preserve">
    <circle style="fill:#91C0F1;" cx="255.999" cy="255.998" r="255.998"/>
    <path style="fill:#D7EDF3;" d="M256,512C114.615,512,0.001,397.384,0.001,255.999S114.615,0,256,0V512z"/>
    <path style="fill:#A2CE86;" d="M142.83,345.053l3.763-4.164c12.842-14.212,12.595-35.91-0.567-49.827l-2.011-2.126c-8.623-9.118-11.989-22.007-8.927-34.176c4.016-15.959-3.08-32.639-17.363-40.814l-97.426-58.006 C7.234,186.676,0.001,220.493,0.001,255.999c0,100.778,58.241,187.938,142.892,229.702l-9.008-109.85	C131.987,364.756,135.284,353.404,142.83,345.053z"/>
    <g>
      <path style="fill:#489B6D;" d="M436.811,74.777l-16.915,18.486c-7.363,8.047-17.639,12.812-28.537,13.235l-76.503,2.969c-13.56,0.527-25.973,7.756-33.121,19.291l-19.61,31.644c-8.866,14.308-8.044,32.59,2.072,46.044l12.178,16.196c9.245,12.295,14.206,27.278,14.127,42.66l-0.259,50.205c-0.136,26.442,23.649,46.589,49.708,42.106l55.769-9.597c15.328-2.637,29.349-10.278,39.875-21.727l0,0c18.726-20.368,46.625-27.139,71.444-19.946c3.247-16.279,4.961-33.111,4.961-50.344 C512.001,185.203,483.26,121.12,436.811,74.777z"/>
      <path style="fill:#489B6D;" d="M270.438,450.438L270.438,450.438c-17.042,7.556-26.831,25.666-23.817,44.062l2.854,17.416c2.168,0.054,4.343,0.082,6.525,0.082c41.38,0,80.46-9.831,115.051-27.265l-4.36-6.497	C345.611,446.832,305.017,435.108,270.438,450.438z"/>
    </g>
    <path style="fill:#A2CE86;" d="M145.49,101.316l51.928-29.224c8.166-4.596,14.086-12.345,16.373-21.433l12.308-48.911c-58.35,6.789-110.711,33.189-150.316,72.45l32.275,24.542C118.906,106.986,133.616,107.999,145.49,101.316z"/>
  </symbol>

  <symbol id="private-color" x="0px" y="0px" viewBox="0 0 511.999 511.999" style="enable-background:new 0 0 511.999 511.999;" xml:space="preserve">
    <g>
      <path style="fill:#29ABE2;" d="M18.757,501.431c0-131.026,106.217-237.243,237.243-237.243s237.243,106.217,237.243,237.243H18.757z"/>
      <circle style="fill:#29ABE2;" cx="255.999" cy="137.378" r="126.811"/>
    </g>
    <path d="M431.227,326.204c-32.299-32.299-71.945-54.578-115.168-65.29c45.736-22.325,77.319-69.31,77.319-123.535 C393.378,61.628,331.75,0,255.999,0S118.621,61.628,118.621,137.379c0,54.227,31.583,101.21,77.319,123.535c-43.224,10.711-82.869,32.991-115.168,65.29C33.966,373.009,8.189,435.239,8.189,501.431c0,5.836,4.731,10.568,10.568,10.568h474.485c5.836,0,10.568-4.731,10.568-10.568C503.81,435.239,478.033,373.009,431.227,326.204z M139.756,137.378c0-64.097,52.147-116.244,116.244-116.244s116.244,52.147,116.244,116.244s-52.147,116.244-116.244,116.244 S139.756,201.474,139.756,137.378z M29.568,490.864c5.535-120.106,104.983-216.107,226.432-216.107s220.897,96.001,226.432,216.107	H29.568z"/>
    <path d="M65.399,466.033c-0.818,0-1.649-0.095-2.478-0.295c-5.675-1.364-9.17-7.069-7.806-12.745c12.881-53.607,47.534-100.641,95.072-129.04c5.009-2.993,11.498-1.359,14.491,3.653c2.993,5.01,1.358,11.499-3.653,14.491c-42.688,25.502-73.8,67.721-85.362,115.834C74.501,462.776,70.171,466.033,65.399,466.033z"/>
    <path d="M210.55,321.267c-4.785,0-9.12-3.272-10.273-8.13c-1.347-5.679,2.163-11.374,7.841-12.722c15.598-3.702,31.707-5.58,47.881-5.58c5.836,0,10.568,4.731,10.568,10.568s-4.731,10.568-10.568,10.568
      c-14.532,0-28.999,1.684-43.001,5.008C212.179,321.173,211.358,321.267,210.55,321.267z"/>
  </symbol>

  <symbol id="calendar-color" x="0px" y="0px" viewBox="0 0 128.5 128.5" style="enable-background:new 0 0 128.5 128.5;" xml:space="preserve">
    <g id="_x31_4">
      <g>
        <circle style="fill:#EF8D6F;" cx="64.25" cy="64.25" r="64.25"/>
      </g>
      <g>
        <path style="fill:#F2F2F2;" d="M87.805,28.975h0.618c7.083,0,12.878,5.795,12.878,12.879v48.345
          c0,7.083-5.796,12.879-12.878,12.879h-0.618V47.287c2.704,0,4.896-2.192,4.896-4.896c0-2.703-2.191-4.895-4.896-4.895
          C87.805,37.496,87.805,28.975,87.805,28.975z M40.696,28.975h47.109v8.521h-0.001c-2.703,0-4.896,2.192-4.896,4.895
          c0,2.704,2.193,4.896,4.896,4.896h0.001v55.791H40.696V47.287c2.703,0,4.896-2.192,4.896-4.896c0-2.703-2.192-4.895-4.896-4.895
          V28.975z M40.079,28.975h0.617v8.521c-2.704,0-4.896,2.192-4.896,4.895c0,2.704,2.192,4.896,4.896,4.896v55.791h-0.617
          c-7.084,0-12.88-5.797-12.88-12.879V41.854C27.199,34.77,32.995,28.975,40.079,28.975z"/>
        <path style="fill:#AFAFAF;" d="M40.696,25.422L40.696,25.422c1.046,0,1.902,0.856,1.902,1.902v13.165
          c0,1.046-0.856,1.902-1.902,1.902h-0.001c-1.047,0-1.902-0.856-1.902-1.902V27.324C38.794,26.278,39.65,25.422,40.696,25.422z"/>
        <path style="fill:#AFAFAF;" d="M87.805,25.422L87.805,25.422c1.047,0,1.902,0.856,1.902,1.902v13.165
          c0,1.046-0.855,1.902-1.902,1.902h-0.001c-1.047,0-1.903-0.856-1.903-1.902V27.324C85.902,26.278,86.758,25.422,87.805,25.422z"/>
        <rect x="27.199" y="50.675" style="fill:#FABB18;" width="74.102" height="3.107"/>
        <rect x="53.236" y="59.304" style="fill:#EFCB6C;" width="9.584" height="8.453"/>
        <rect x="38.199" y="58.954" style="fill:#C9675B;" width="9.584" height="8.453"/>
        <rect x="68.727" y="59.304" style="fill:#EFCB6C;" width="9.584" height="8.453"/>
        <rect x="83.088" y="59.304" style="fill:#EFCB6C;" width="9.584" height="8.453"/>
        <rect x="53.586" y="72.996" style="fill:#EFCB6C;" width="9.584" height="8.453"/>
        <rect x="69.077" y="72.996" style="fill:#EFCB6C;" width="9.584" height="8.453"/>
        <rect x="83.088" y="73.346" style="fill:#EFCB6C;" width="9.584" height="8.453"/>
        <rect x="53.586" y="87.327" style="fill:#EFCB6C;" width="9.584" height="8.439"/>
        <rect x="38.373" y="72.996" style="fill:#EFCB6C;" width="9.584" height="8.453"/>
        <rect x="38.373" y="87.327" style="fill:#EFCB6C;" width="9.584" height="8.439"/>
        <rect x="68.727" y="87.677" style="fill:#EFCB6C;" width="9.584" height="8.439"/>
        <rect x="83.088" y="87.677" style="fill:#EFCB6C;" width="9.584" height="8.439"/>
      </g>
    </g>
  </symbol>

  <symbol id="chevron-left" class="h-6 w-6" fill="none" viewBox="0 0 24 24" stroke="currentColor">
    <path stroke-linecap="round" stroke-linejoin="round" stroke-width="2" d="M15 19l-7-7 7-7" />
  </symbol>

  <symbol id="chevron-right" class="h-6 w-6" fill="none" viewBox="0 0 24 24" stroke="currentColor">
    <path stroke-linecap="round" stroke-linejoin="round" stroke-width="2" d="M9 5l7 7-7 7" />
  </symbol>

  <symbol id="cog" class="h-6 w-6" fill="none" viewBox="0 0 24 24" stroke="currentColor">
    <path stroke-linecap="round" stroke-linejoin="round" stroke-width="2" d="M10.325 4.317c.426-1.756 2.924-1.756 3.35 0a1.724 1.724 0 002.573 1.066c1.543-.94 3.31.826 2.37 2.37a1.724 1.724 0 001.065 2.572c1.756.426 1.756 2.924 0 3.35a1.724 1.724 0 00-1.066 2.573c.94 1.543-.826 3.31-2.37 2.37a1.724 1.724 0 00-2.572 1.065c-.426 1.756-2.924 1.756-3.35 0a1.724 1.724 0 00-2.573-1.066c-1.543.94-3.31-.826-2.37-2.37a1.724 1.724 0 00-1.065-2.572c-1.756-.426-1.756-2.924 0-3.35a1.724 1.724 0 001.066-2.573c-.94-1.543.826-3.31 2.37-2.37.996.608 2.296.07 2.572-1.065z" />
    <path stroke-linecap="round" stroke-linejoin="round" stroke-width="2" d="M15 12a3 3 0 11-6 0 3 3 0 016 0z" />
  </symbol>

</svg>
