<?xml version="1.0" encoding="UTF-8"?>
<svg id="logo" width="300px" height="300px" viewBox="0 0 320 320" version="1.1" xmlns="http://www.w3.org/2000/svg" xmlns:xlink="http://www.w3.org/1999/xlink">
    <title>logo</title>
    <defs>
        <linearGradient id="grad1" x1="0%" y1="0%" x2="100%" y2="0%">
            <stop offset="0%" style="stop-color:#787878;stop-opacity:1" />
            <stop offset="100%" style="stop-color:#565656;stop-opacity:1" />
        </linearGradient>
        <linearGradient id="grad2" x1="80%" y1="0%" x2="100%" y2="80%">
            <stop offset="0%" style="stop-color:#22d3ee;stop-opacity:1" />
            <stop offset="50%" style="stop-color:#07BABD;stop-opacity:1" />
            <stop offset="90%" style="stop-color:#118284;stop-opacity:1" />
            <stop offset="100%" style="stop-color:#00AB59;stop-opacity:1" />
        </linearGradient>
    </defs>
    <g stroke="none" stroke-width="1" fill="none" fill-rule="evenodd">
        <g>
            <circle id="Oval" stroke="url(#grad2)" stroke-width="20" fill="url(#grad1)" cx="160" cy="160" r="140"></circle>
            <g transform="translate(75, 85)" id="Rectangle" stroke-width="5">
                <g>
                    <rect stroke="#979797" fill="#FFFFFF" x="121" y="1" width="48" height="150" rx="8"></rect>
                    <path d="M42,1 C43,1 45,1 46,3 C48,4 49,6 49,8 L49,8 L49,142 C49,143 48,145 46,146 C45,148 43,149 42,149 L42,149 L8,149 C6,149 4,148 3,146 C1,145 1,143 1,142 L1,142 L1,8 C1,6 1,4 3,3 C4,1 6,1 8,1 L8,1 Z" stroke="#0ea5e9" fill="#22d3ee">
                    </path>
                    
                    <path d="M102,51 C103,51 105,51 106,53 C108,54 109,56 109,58 L109,58 L109,142 C109,143 108,145 106,146 C105,148 103,149 102,149 L102,149 L68,149 C66,149 64,148 63,146 C61,145 61,143 61,142 L61,142 L61,58 C61,56 61,54 63,53 C64,51 66,51 68,51 L68,51 Z" stroke="#979797" fill="#FFFFFF"></path>
                </g>
            </g>
        </g>
    </g>
    <use xlink:href="#logo-circle"></use>
</svg>