<?xml version="1.0" encoding="UTF-8"?>
<svg width="352px" height="150px" viewBox="0 0 352 150" version="1.1" xmlns="http://www.w3.org/2000/svg" xmlns:xlink="http://www.w3.org/1999/xlink">
    <title>Group 3</title>
    <g id="Page-1" stroke="none" stroke-width="1" fill="none" fill-rule="evenodd">
        <g id="Group-3" stroke="#1CBD7C" stroke-width="2">
            <rect id="mm3" fill="#FFFFFF" x="121" y="1" width="48" height="148" rx="8"></rect>
            <path d="M42,1 C43.9329966,1 45.6829966,1.78350169 46.9497475,3.05025253 C48.2164983,4.31700338 49,6.06700338 49,8 L49,8 L49,142 C49,143.932997 48.2164983,145.682997 46.9497475,146.949747 C45.6829966,148.216498 43.9329966,149 42,149 L42,149 L8,149 C6.06700338,149 4.31700338,148.216498 3.05025253,146.949747 C1.78350169,145.682997 1,143.932997 1,142 L1,142 L1,8 C1,6.06700338 1.78350169,4.31700338 3.05025253,3.05025253 C4.31700338,1.78350169 6.06700338,1 8,1 L8,1 Z" id="MM1" fill="#1CBD7C"></path>
            <path d="M102,51 C103.932997,51 105.682997,51.7835017 106.949747,53.0502525 C108.216498,54.3170034 109,56.0670034 109,58 L109,58 L109,142 C109,143.932997 108.216498,145.682997 106.949747,146.949747 C105.682997,148.216498 103.932997,149 102,149 L102,149 L68,149 C66.0670034,149 64.3170034,148.216498 63.0502525,146.949747 C61.7835017,145.682997 61,143.932997 61,142 L61,142 L61,58 C61,56.0670034 61.7835017,54.3170034 63.0502525,53.0502525 C64.3170034,51.7835017 66.0670034,51 68,51 L68,51 Z" id="MM2" fill="#FFFFFF"></path>
            <path d="M344,1 C345.932997,1 347.682997,1.78350169 348.949747,3.05025253 C350.216498,4.31700338 351,6.06700338 351,8 L351,8 L351,42 C351,43.9329966 350.216498,45.6829966 348.949747,46.9497475 C347.682997,48.2164983 345.932997,49 344,49 L344,49 L210,49 C208.067003,49 206.317003,48.2164983 205.050253,46.9497475 C203.783502,45.6829966 203,43.9329966 203,42 L203,42 L203,8 C203,6.06700338 203.783502,4.31700338 205.050253,3.05025253 C206.317003,1.78350169 208.067003,1 210,1 L210,1 Z" id="MC1" fill="#1CBD7C"></path>
            <path d="M344,101 C345.932997,101 347.682997,101.783502 348.949747,103.050253 C350.216498,104.317003 351,106.067003 351,108 L351,108 L351,142 C351,143.932997 350.216498,145.682997 348.949747,146.949747 C347.682997,148.216498 345.932997,149 344,149 L344,149 L210,149 C208.067003,149 206.317003,148.216498 205.050253,146.949747 C203.783502,145.682997 203,143.932997 203,142 L203,142 L203,108 C203,106.067003 203.783502,104.317003 205.050253,103.050253 C206.317003,101.783502 208.067003,101 210,101 L210,101 Z" id="MC3" fill-opacity="0" fill="#1CBD7C"></path>
            <path d="M244,59 C245.932997,59 247.682997,59.7835017 248.949747,61.0502525 C250.216498,62.3170034 251,64.0670034 251,66 L251,66 L251,84 C251,85.9329966 250.216498,87.6829966 248.949747,88.9497475 C247.682997,90.2164983 245.932997,91 244,91 L244,91 L210,91 C208.067003,91 206.317003,90.2164983 205.050253,88.9497475 C203.783502,87.6829966 203,85.9329966 203,84 L203,84 L203,66 C203,64.0670034 203.783502,62.3170034 205.050253,61.0502525 C206.317003,59.7835017 208.067003,59 210,59 L210,59 Z" id="MC2" fill="#FFFFFF"></path>
        </g>
    </g>
</svg>