<?xml version="1.0" encoding="UTF-8"?>
<svg width="170px" height="150px" viewBox="0 0 170 150" version="1.1" xmlns="http://www.w3.org/2000/svg" xmlns:xlink="http://www.w3.org/1999/xlink">
    <title>Slice 1</title>
    <g id="Slice-1" stroke="none" stroke-width="1" fill="none" fill-rule="evenodd">
        <rect id="Rectangle" stroke="#80CBC4" stroke-width="2" fill="#FFFFFF" x="121" y="1" width="48" height="148" rx="8"></rect>
        <path d="M42,1 C43.9329966,1 45.6829966,1.78350169 46.9497475,3.05025253 C48.2164983,4.31700338 49,6.06700338 49,8 L49,8 L49,142 C49,143.932997 48.2164983,145.682997 46.9497475,146.949747 C45.6829966,148.216498 43.9329966,149 42,149 L42,149 L8,149 C6.06700338,149 4.31700338,148.216498 3.05025253,146.949747 C1.78350169,145.682997 1,143.932997 1,142 L1,142 L1,8 C1,6.06700338 1.78350169,4.31700338 3.05025253,3.05025253 C4.31700338,1.78350169 6.06700338,1 8,1 L8,1 Z" id="Rectangle" stroke="#80CBC4" stroke-width="2" fill="#80CBC4"></path>
        <path d="M102,51 C103.932997,51 105.682997,51.7835017 106.949747,53.0502525 C108.216498,54.3170034 109,56.0670034 109,58 L109,58 L109,142 C109,143.932997 108.216498,145.682997 106.949747,146.949747 C105.682997,148.216498 103.932997,149 102,149 L102,149 L68,149 C66.0670034,149 64.3170034,148.216498 63.0502525,146.949747 C61.7835017,145.682997 61,143.932997 61,142 L61,142 L61,58 C61,56.0670034 61.7835017,54.3170034 63.0502525,53.0502525 C64.3170034,51.7835017 66.0670034,51 68,51 L68,51 Z" id="Rectangle" stroke="#80CBC4" stroke-width="2" fill="#FFFFFF"></path>
    </g>
</svg>